if (_typeface_js && _typeface_js.loadFace) _typeface_js.loadFace({"glyphs":{"¦":{"x_min":317,"x_max":378,"ha":694,"o":"m 378 277 l 378 -237 l 317 -237 l 317 277 l 378 277 m 378 971 l 378 457 l 317 457 l 317 971 l 378 971 "},"Ž":{"x_min":-61,"x_max":664,"ha":611,"o":"m -61 0 l -47 66 l 540 954 l 141 954 l 158 1035 l 664 1035 l 648 963 l 62 81 l 482 81 l 463 0 l -61 0 m 293 1303 l 344 1303 l 433 1188 l 568 1303 l 627 1303 l 473 1119 l 383 1119 l 293 1303 "},"Á":{"x_min":-115,"x_max":590,"ha":632,"o":"m 162 392 l 419 392 l 396 898 l 162 392 m 472 1035 l 528 0 l 439 0 l 422 313 l 126 313 l -20 0 l -115 0 l 375 1035 l 472 1035 m 418 1119 l 363 1119 l 489 1303 l 590 1303 l 418 1119 "},"Î":{"x_min":-5,"x_max":430,"ha":298,"o":"m -5 0 l 215 1035 l 305 1035 l 83 0 l -5 0 m 430 1119 l 378 1119 l 289 1233 l 153 1119 l 95 1119 l 249 1303 l 341 1303 l 430 1119 "},"e":{"x_min":24,"x_max":509,"ha":591,"o":"m 135 458 l 425 458 q 430 517 428 494 q 432 555 432 539 q 399 671 432 630 q 310 713 367 713 q 206 652 247 713 q 135 458 164 591 m 494 389 l 120 388 q 105 274 108 309 q 102 214 102 239 q 133 92 102 135 q 223 49 165 49 q 317 96 278 49 q 381 243 356 143 l 459 243 q 368 46 430 114 q 218 -21 306 -21 q 74 42 124 -21 q 24 222 24 105 q 50 443 24 322 q 112 638 76 564 q 197 745 146 709 q 314 782 248 782 q 458 721 407 782 q 509 548 509 660 q 505 486 509 523 q 494 389 502 449 "},"»":{"x_min":21,"x_max":536,"ha":618,"o":"m 362 574 l 536 425 l 516 331 l 277 179 l 294 262 l 468 386 l 345 494 l 362 574 m 105 574 l 280 425 l 260 331 l 21 179 l 38 262 l 212 386 l 87 494 l 105 574 "},"∆":{"x_min":-8,"x_max":913,"ha":905,"o":"m 783 82 l 453 918 l 120 82 l 783 82 m 511 999 l 913 0 l -8 0 l 394 999 l 511 999 "},"ò":{"x_min":21,"x_max":543,"ha":624,"o":"m 21 223 q 49 444 21 324 q 116 638 77 565 q 208 746 155 710 q 331 782 262 782 q 488 719 433 782 q 543 539 543 656 q 515 317 543 436 q 446 123 487 199 q 354 15 408 51 q 230 -20 300 -20 q 74 42 127 -20 q 21 223 21 104 m 327 713 q 247 685 282 713 q 185 603 212 658 q 128 420 152 533 q 104 214 104 307 q 137 92 104 134 q 234 50 171 50 q 315 77 279 50 q 377 157 351 104 q 435 344 411 230 q 460 547 460 459 q 426 670 460 628 q 327 713 392 713 m 449 844 l 392 844 l 213 1028 l 318 1028 l 449 844 "},"^":{"x_min":288,"x_max":1100,"ha":1389,"o":"m 733 989 l 1100 611 l 1015 611 l 694 929 l 372 611 l 288 611 l 653 989 l 733 989 "},"«":{"x_min":32,"x_max":547,"ha":618,"o":"m 462 180 l 291 327 l 310 420 l 547 573 l 528 489 l 357 367 l 479 257 l 462 180 m 204 180 l 32 327 l 51 420 l 288 573 l 271 489 l 98 367 l 221 257 l 204 180 "},"∙":{"x_min":107,"x_max":218,"ha":325,"o":"m 107 471 q 122 510 107 494 q 162 527 138 527 q 201 510 184 527 q 218 471 218 494 q 201 432 218 449 q 162 416 184 416 q 123 432 139 416 q 107 471 107 449 "},"í":{"x_min":-21,"x_max":358,"ha":261,"o":"m -21 0 l 140 762 l 222 762 l 60 0 l -21 0 m 186 844 l 131 844 l 257 1028 l 358 1028 l 186 844 "},"ˆ":{"x_min":241,"x_max":576,"ha":694,"o":"m 576 844 l 524 844 l 435 958 l 299 844 l 241 844 l 395 1028 l 487 1028 l 576 844 "},"µ":{"x_min":-75,"x_max":693,"ha":742,"o":"m 221 721 l 137 320 q 128 268 131 291 q 126 225 126 245 q 166 94 126 139 q 284 50 207 50 q 433 123 370 50 q 526 336 496 197 l 610 721 l 693 721 l 580 187 q 577 171 579 181 q 563 95 563 109 q 575 63 563 74 q 609 52 587 52 q 622 53 615 52 q 636 54 628 53 l 623 -11 q 618 -12 621 -11 q 572 -20 585 -20 q 504 1 526 -20 q 482 66 482 22 q 482 77 482 71 q 484 96 482 83 q 401 10 455 40 q 273 -20 346 -20 q 158 10 207 -20 q 87 96 109 41 l 6 -288 l -75 -288 l 139 721 l 221 721 "},"č":{"x_min":22,"x_max":544,"ha":570,"o":"m 501 539 l 430 539 l 430 544 q 397 669 430 625 q 306 713 365 713 q 232 685 265 713 q 174 603 198 657 q 120 418 142 530 q 98 214 98 305 q 129 91 98 134 q 220 48 161 48 q 318 98 277 48 q 377 239 360 148 l 451 239 q 366 46 427 114 q 215 -22 305 -22 q 72 41 122 -22 q 22 221 22 104 q 47 442 22 322 q 110 638 73 562 q 195 746 144 710 q 311 782 245 782 q 452 722 403 782 q 501 552 501 663 l 501 539 m 210 1028 l 261 1028 l 350 913 l 485 1028 l 544 1028 l 390 844 l 300 844 l 210 1028 "},"’":{"x_min":155,"x_max":339,"ha":319,"o":"m 339 1035 l 311 905 q 255 773 290 814 q 155 718 220 732 l 167 774 q 214 811 197 784 q 247 905 232 839 l 205 905 l 232 1035 l 339 1035 "},"-":{"x_min":49,"x_max":429,"ha":472,"o":"m 49 343 l 65 416 l 429 416 l 413 343 l 49 343 "},"Q":{"x_min":47,"x_max":722,"ha":774,"o":"m 427 98 l 325 193 l 377 250 l 479 155 q 522 232 503 188 q 563 357 541 277 q 616 588 597 478 q 635 769 635 698 q 590 924 635 871 q 462 978 546 978 q 345 939 395 978 q 257 819 295 900 q 215 706 236 774 q 175 549 195 638 q 146 390 156 460 q 137 271 137 320 q 178 112 137 165 q 305 59 220 59 q 373 69 342 59 q 427 98 404 79 m 488 41 q 405 -6 452 9 q 299 -22 357 -22 q 112 54 177 -22 q 47 273 47 130 q 56 399 47 327 q 87 563 66 472 q 129 725 106 651 q 179 850 153 798 q 301 1007 232 957 q 467 1057 371 1057 q 657 981 593 1057 q 722 756 722 905 q 705 577 722 678 q 657 361 688 477 q 604 211 631 272 q 540 98 577 151 l 648 -2 l 597 -59 l 488 41 "},"M":{"x_min":-11,"x_max":1023,"ha":1014,"o":"m -11 0 l 208 1035 l 356 1035 l 418 126 l 870 1035 l 1023 1035 l 804 0 l 715 0 l 920 962 l 442 0 l 345 0 l 282 962 l 77 0 l -11 0 "},"œ":{"x_min":21,"x_max":909,"ha":983,"o":"m 533 458 l 826 458 q 831 517 829 494 q 833 555 833 539 q 800 671 833 630 q 710 713 768 713 q 605 652 647 713 q 533 458 563 591 m 327 713 q 246 685 281 713 q 185 603 211 658 q 128 419 152 532 q 104 214 104 305 q 137 91 104 134 q 234 48 171 48 q 314 75 278 48 q 375 157 350 102 q 434 342 409 227 q 459 546 459 457 q 425 670 459 627 q 327 713 391 713 m 524 653 q 604 749 556 716 q 715 782 651 782 q 858 719 808 782 q 909 540 909 657 q 905 473 909 510 q 896 389 902 435 l 520 388 q 504 275 508 311 q 500 213 500 238 q 532 90 500 133 q 623 48 564 48 q 718 95 679 48 q 782 241 757 142 l 862 241 q 770 45 833 113 q 618 -22 708 -22 q 506 12 553 -22 q 438 111 460 47 q 350 11 403 45 q 228 -22 297 -22 q 75 41 129 -22 q 21 221 21 104 q 49 442 21 321 q 116 637 77 563 q 208 745 153 709 q 334 782 263 782 q 458 748 409 782 q 524 653 506 715 "},"{":{"x_min":120,"x_max":574,"ha":694,"o":"m 574 942 l 548 942 q 425 907 457 942 q 394 762 394 872 l 394 599 q 365 431 394 481 q 262 360 336 382 q 365 290 336 338 q 394 121 394 241 l 394 -42 q 425 -185 394 -151 q 547 -220 456 -220 l 574 -220 l 574 -280 l 544 -280 q 371 -229 417 -280 q 325 -25 325 -178 l 325 137 q 285 287 325 244 q 150 331 246 331 q 135 330 145 331 q 120 330 126 330 l 120 391 q 133 390 126 390 q 153 390 140 390 q 286 433 247 390 q 325 584 325 477 l 325 746 q 371 951 325 900 q 544 1002 417 1002 l 574 1002 l 574 942 "},"¼":{"x_min":97,"x_max":1020,"ha":1050,"o":"m 875 197 l 954 503 l 705 197 l 875 197 m 828 0 l 865 158 l 642 158 l 653 202 l 968 582 l 1020 582 l 927 197 l 990 197 l 982 158 l 919 158 l 879 0 l 828 0 m 802 1032 l 870 1032 l 245 -26 l 176 -26 l 802 1032 m 127 444 l 238 906 q 191 899 214 901 q 141 897 167 897 l 97 897 l 104 928 q 214 953 172 930 q 279 1026 256 977 l 322 1026 l 182 444 l 127 444 "},"#":{"x_min":87,"x_max":980,"ha":1068,"o":"m 663 587 l 480 587 l 413 396 l 595 396 l 663 587 m 619 986 l 501 648 l 685 648 l 805 986 l 879 986 l 761 648 l 980 648 l 958 587 l 739 587 l 671 396 l 907 396 l 887 335 l 649 335 l 531 0 l 455 0 l 574 335 l 391 335 l 270 0 l 195 0 l 313 335 l 87 335 l 108 396 l 335 396 l 403 587 l 159 587 l 178 648 l 426 648 l 545 986 l 619 986 "},"Ê":{"x_min":-11,"x_max":658,"ha":625,"o":"m -11 0 l 208 1035 l 658 1035 l 641 958 l 281 958 l 201 582 l 552 582 l 533 501 l 184 501 l 95 81 l 480 81 l 463 0 l -11 0 m 598 1119 l 546 1119 l 457 1233 l 321 1119 l 263 1119 l 417 1303 l 509 1303 l 598 1119 "},")":{"x_min":-134,"x_max":302,"ha":425,"o":"m -134 -264 q 132 165 45 -47 q 219 601 219 378 q 198 800 219 695 q 133 1035 177 906 l 192 1035 q 275 781 248 902 q 302 540 302 659 q 214 140 302 334 q -60 -264 126 -54 l -134 -264 "},"Å":{"x_min":-115,"x_max":567,"ha":632,"o":"m 372 1207 q 391 1160 372 1180 q 437 1141 411 1141 q 485 1161 464 1141 q 506 1207 506 1181 q 485 1254 506 1234 q 437 1275 464 1275 q 391 1255 411 1275 q 372 1207 372 1235 m 311 1207 q 348 1298 311 1260 q 438 1336 385 1336 q 528 1298 490 1336 q 567 1207 567 1260 q 529 1117 567 1154 q 438 1080 492 1080 q 348 1117 385 1080 q 311 1207 311 1154 m 162 392 l 418 392 l 395 898 l 162 392 m 470 1035 l 528 0 l 437 0 l 421 313 l 126 313 l -20 0 l -115 0 l 374 1035 l 470 1035 "},"¸":{"x_min":102,"x_max":399,"ha":694,"o":"m 123 -239 q 135 -241 127 -239 q 222 -254 199 -254 q 286 -235 264 -254 q 309 -182 309 -217 q 283 -139 309 -152 q 196 -126 258 -126 l 172 -126 l 213 0 l 264 0 l 239 -72 l 250 -72 q 363 -100 327 -72 q 399 -187 399 -128 q 354 -282 399 -246 q 236 -318 310 -318 q 175 -313 208 -318 q 102 -298 142 -308 l 123 -239 "},"a":{"x_min":-14,"x_max":494,"ha":567,"o":"m 169 576 l 87 576 q 167 727 108 675 q 320 779 226 779 q 444 739 394 779 q 494 641 494 699 q 489 588 494 618 q 475 512 485 557 l 398 143 q 395 126 396 135 q 394 106 394 118 q 408 69 394 83 q 445 56 421 56 q 456 56 452 56 q 463 57 460 56 l 450 -5 q 422 -9 435 -8 q 398 -10 409 -10 q 341 5 362 -10 q 314 56 321 22 q 238 0 276 18 q 155 -17 199 -17 q 32 32 79 -17 q -14 162 -14 82 q 36 318 -14 260 q 247 429 87 376 q 382 502 353 464 q 411 608 411 539 q 384 683 411 657 q 307 710 357 710 q 220 679 252 710 q 169 576 188 648 m 370 393 l 364 392 q 67 171 67 301 q 95 87 67 118 q 173 56 124 56 q 295 134 249 56 q 370 393 342 213 "},"=":{"x_min":172,"x_max":984,"ha":1157,"o":"m 984 318 l 984 262 l 172 262 l 172 318 l 984 318 m 984 564 l 984 510 l 172 510 l 172 564 l 984 564 "},"˚":{"x_min":309,"x_max":576,"ha":694,"o":"m 371 974 q 392 923 371 944 q 442 902 413 902 q 492 923 471 902 q 514 974 514 944 q 492 1024 514 1003 q 442 1045 471 1045 q 391 1024 412 1045 q 371 974 371 1003 m 309 973 q 348 1067 309 1028 q 442 1107 387 1107 q 536 1067 497 1107 q 576 973 576 1028 q 536 879 576 918 q 442 840 497 840 q 348 879 387 840 q 309 973 309 918 "},"ú":{"x_min":1,"x_max":562,"ha":612,"o":"m 562 762 l 399 0 l 324 0 l 339 74 q 255 2 302 26 q 150 -21 207 -21 q 41 16 82 -21 q 1 116 1 53 q 3 153 1 133 q 11 199 6 173 l 131 762 l 211 762 l 90 194 q 85 163 87 179 q 84 134 84 147 q 107 69 84 92 q 172 47 130 47 q 302 106 246 47 q 381 268 359 166 l 485 762 l 562 762 m 352 844 l 297 844 l 423 1028 l 524 1028 l 352 844 "},"¯":{"x_min":273,"x_max":588,"ha":694,"o":"m 273 890 l 288 959 l 588 959 l 573 890 l 273 890 "},"Z":{"x_min":-61,"x_max":664,"ha":611,"o":"m -61 0 l -47 66 l 540 954 l 141 954 l 158 1035 l 664 1035 l 648 963 l 62 81 l 482 81 l 463 0 l -61 0 "},"u":{"x_min":1,"x_max":562,"ha":612,"o":"m 562 762 l 399 0 l 324 0 l 339 74 q 255 2 302 26 q 150 -21 207 -21 q 41 16 82 -21 q 1 116 1 53 q 3 153 1 133 q 11 199 6 173 l 131 762 l 211 762 l 90 194 q 85 163 87 179 q 84 134 84 147 q 107 69 84 92 q 172 47 130 47 q 302 106 246 47 q 381 268 359 166 l 485 762 l 562 762 "},"k":{"x_min":-26,"x_max":556,"ha":515,"o":"m -26 0 l 193 1035 l 276 1035 l 147 431 l 458 762 l 556 762 l 272 459 l 400 0 l 317 0 l 209 388 l 118 294 l 55 0 l -26 0 "},"Ù":{"x_min":40,"x_max":785,"ha":768,"o":"m 202 1035 l 291 1035 l 143 340 q 132 280 136 309 q 129 228 129 252 q 175 102 129 145 q 312 59 221 59 q 462 115 411 59 q 551 351 512 171 l 696 1035 l 785 1035 l 636 332 q 520 49 591 120 q 307 -22 449 -22 q 110 41 181 -22 q 40 218 40 104 q 64 387 40 268 l 66 397 l 202 1035 m 592 1119 l 535 1119 l 356 1303 l 461 1303 l 592 1119 "},"¢":{"x_min":53,"x_max":532,"ha":648,"o":"m 137 -173 l 176 9 q 83 91 113 35 q 53 242 53 148 q 79 464 53 343 q 141 659 105 585 q 227 767 177 732 q 347 803 277 801 l 380 961 l 448 961 l 413 791 q 504 715 476 768 q 532 565 532 661 l 532 557 l 461 557 l 461 568 q 430 692 461 650 q 337 734 399 734 q 271 712 301 734 q 219 649 241 691 q 157 459 183 580 q 131 237 131 339 q 160 112 131 153 q 248 71 189 71 q 349 118 309 71 q 408 260 389 165 l 483 260 q 397 65 454 128 q 244 0 339 3 l 206 -173 l 137 -173 "},"Ş":{"x_min":16,"x_max":674,"ha":715,"o":"m 20 310 l 104 310 q 102 283 103 296 q 102 254 102 270 q 151 111 102 163 q 287 59 201 59 q 442 124 384 59 q 500 302 500 190 q 350 486 500 412 q 297 513 316 503 q 174 616 210 560 q 138 757 138 671 q 217 969 138 882 q 414 1057 297 1057 q 605 992 537 1057 q 674 811 674 928 q 673 792 674 799 q 672 780 673 785 l 589 780 q 590 791 589 784 q 591 803 591 799 q 544 929 591 883 q 419 976 498 976 q 281 912 336 976 q 227 751 227 849 q 389 567 227 647 q 428 548 414 555 q 549 448 510 507 q 589 308 589 389 q 506 70 589 160 q 287 -20 423 -20 q 88 49 161 -20 q 16 237 16 118 q 17 267 16 248 q 20 310 18 285 m 134 -239 q 146 -241 138 -239 q 233 -254 210 -254 q 297 -235 275 -254 q 320 -182 320 -217 q 294 -139 320 -152 q 207 -126 269 -126 l 183 -126 l 224 0 l 275 0 l 250 -72 l 261 -72 q 374 -100 338 -72 q 410 -187 410 -128 q 365 -282 410 -246 q 247 -318 321 -318 q 186 -313 219 -318 q 113 -298 153 -308 l 134 -239 "},"é":{"x_min":24,"x_max":509,"ha":591,"o":"m 135 458 l 425 458 q 430 517 428 494 q 432 555 432 539 q 399 671 432 630 q 310 713 367 713 q 206 652 247 713 q 135 458 164 591 m 494 389 l 120 388 q 105 274 108 309 q 102 214 102 239 q 133 92 102 135 q 223 49 165 49 q 317 96 278 49 q 381 243 356 143 l 459 243 q 368 46 430 114 q 218 -21 306 -21 q 74 42 124 -21 q 24 222 24 105 q 50 443 24 322 q 112 638 76 564 q 197 745 146 709 q 314 782 248 782 q 458 721 407 782 q 509 548 509 660 q 505 486 509 523 q 494 389 502 449 m 328 844 l 273 844 l 399 1028 l 500 1028 l 328 844 "},"B":{"x_min":-8,"x_max":668,"ha":707,"o":"m 96 78 l 181 78 q 309 86 256 78 q 393 112 361 94 q 476 201 445 141 q 507 336 507 261 q 449 467 507 426 q 262 509 391 509 l 189 509 l 96 78 m 204 582 l 282 582 q 508 634 439 582 q 578 804 578 687 q 526 919 578 882 q 364 956 475 956 l 284 956 l 204 582 m -8 0 l 212 1035 l 376 1035 q 596 977 524 1035 q 668 803 668 920 q 616 634 668 702 q 466 539 565 567 q 563 460 530 514 q 597 327 597 407 q 567 181 597 249 q 484 70 537 113 q 370 16 436 32 q 164 0 303 0 l -8 0 "},"…":{"x_min":83,"x_max":1138,"ha":1389,"o":"m 83 0 l 109 125 l 211 125 l 183 0 l 83 0 m 546 0 l 572 125 l 674 125 l 646 0 l 546 0 m 1010 0 l 1036 125 l 1138 125 l 1110 0 l 1010 0 "},"H":{"x_min":-11,"x_max":786,"ha":777,"o":"m -11 0 l 208 1035 l 297 1035 l 204 595 l 604 595 l 697 1035 l 786 1035 l 566 0 l 478 0 l 587 514 l 187 514 l 77 0 l -11 0 "},"î":{"x_min":-21,"x_max":360,"ha":261,"o":"m -21 0 l 140 762 l 222 762 l 60 0 l -21 0 m 360 844 l 308 844 l 219 958 l 83 844 l 25 844 l 179 1028 l 271 1028 l 360 844 "},"−":{"x_min":172,"x_max":984,"ha":1157,"o":"m 984 442 l 984 386 l 172 386 l 172 442 l 984 442 "},"≠":{"x_min":172,"x_max":984,"ha":1157,"o":"m 867 751 l 720 564 l 984 564 l 984 510 l 685 510 l 537 318 l 984 318 l 984 262 l 502 262 l 329 42 l 288 75 l 434 262 l 172 262 l 172 318 l 467 318 l 617 510 l 172 510 l 172 564 l 652 564 l 824 785 l 867 751 "},"¥":{"x_min":7,"x_max":731,"ha":648,"o":"m 731 1015 l 513 687 l 661 687 l 647 629 l 473 629 l 389 502 l 621 502 l 608 444 l 350 444 l 254 0 l 168 0 l 261 444 l 7 444 l 21 502 l 253 502 l 218 629 l 47 629 l 59 687 l 203 687 l 114 1015 l 199 1015 l 325 546 l 638 1015 l 731 1015 "},"U":{"x_min":40,"x_max":785,"ha":768,"o":"m 202 1035 l 291 1035 l 143 340 q 132 280 136 309 q 129 228 129 252 q 175 102 129 145 q 312 59 221 59 q 462 115 411 59 q 551 351 512 171 l 696 1035 l 785 1035 l 636 332 q 520 49 591 120 q 307 -22 449 -22 q 110 41 181 -22 q 40 218 40 104 q 64 387 40 268 l 66 397 l 202 1035 "},"Ñ":{"x_min":-11,"x_max":793,"ha":783,"o":"m -11 0 l 208 1035 l 318 1035 l 515 147 l 704 1035 l 793 1035 l 572 0 l 469 0 l 269 904 l 78 0 l -11 0 m 703 1277 q 658 1184 687 1216 q 590 1153 630 1153 q 565 1155 578 1153 q 540 1163 552 1158 l 505 1176 q 488 1182 496 1180 q 473 1185 479 1185 q 439 1173 453 1185 q 419 1139 426 1162 l 368 1139 q 410 1231 382 1199 q 477 1264 439 1264 q 501 1261 490 1264 q 526 1255 513 1259 l 561 1242 q 581 1236 571 1238 q 601 1235 591 1235 q 633 1245 620 1235 q 652 1277 646 1255 l 703 1277 "},"F":{"x_min":-11,"x_max":658,"ha":611,"o":"m -11 0 l 208 1035 l 658 1035 l 641 958 l 281 958 l 208 611 l 556 611 l 540 530 l 190 530 l 77 0 l -11 0 "},"*":{"x_min":176,"x_max":582,"ha":650,"o":"m 379 798 l 284 669 l 234 704 l 328 836 l 176 886 l 195 946 l 348 895 l 348 1055 l 410 1055 l 410 895 l 562 946 l 582 886 l 429 836 l 524 704 l 473 669 l 379 798 "},"†":{"x_min":87,"x_max":629,"ha":650,"o":"m 131 -196 l 310 643 l 87 643 l 102 716 l 325 716 l 394 1035 l 472 1035 l 405 716 l 629 716 l 613 643 l 389 643 l 210 -196 l 131 -196 "},"∕":{"x_min":-232,"x_max":462,"ha":232,"o":"m 394 1032 l 462 1032 l -162 -26 l -232 -26 l 394 1032 "},"°":{"x_min":43,"x_max":414,"ha":457,"o":"m 373 797 q 330 899 373 856 q 228 942 287 942 q 126 899 168 942 q 84 797 84 857 q 126 695 84 737 q 228 653 168 653 q 330 695 288 653 q 373 797 373 737 m 229 983 q 359 928 305 983 q 414 797 414 873 q 359 665 414 719 q 228 612 305 612 q 96 665 150 612 q 43 797 43 719 q 97 928 43 874 q 229 983 152 983 "},"å":{"x_min":-14,"x_max":508,"ha":567,"o":"m 169 576 l 87 576 q 167 727 108 675 q 320 779 226 779 q 444 739 394 779 q 494 641 494 699 q 489 588 494 618 q 475 512 485 557 l 398 143 q 395 126 396 135 q 394 106 394 118 q 408 69 394 83 q 445 56 421 56 q 456 56 452 56 q 463 57 460 56 l 450 -5 q 422 -9 435 -8 q 398 -10 409 -10 q 341 5 361 -10 q 313 56 320 22 q 237 0 275 18 q 154 -17 199 -17 q 32 32 79 -17 q -14 162 -14 82 q 36 318 -14 260 q 247 429 87 376 q 382 502 353 464 q 411 608 411 539 q 384 683 411 657 q 307 710 357 710 q 221 679 252 710 q 169 576 189 648 m 370 393 l 364 392 q 67 171 67 301 q 95 87 67 118 q 172 56 124 56 q 295 134 249 56 q 370 393 342 213 m 313 953 q 333 906 313 926 q 380 886 353 886 q 426 906 406 886 q 447 953 447 927 q 427 1000 447 980 q 380 1020 407 1020 q 332 1000 352 1020 q 313 953 313 981 m 252 953 q 289 1043 252 1006 q 380 1081 326 1081 q 470 1043 433 1081 q 508 953 508 1006 q 470 862 508 899 q 380 825 433 825 q 289 862 326 825 q 252 953 252 899 "},"0":{"x_min":32,"x_max":611,"ha":648,"o":"m 398 957 q 304 919 345 957 q 231 801 263 881 q 190 676 209 743 q 155 536 170 609 q 127 372 137 450 q 118 239 118 295 q 150 101 118 148 q 244 54 182 54 q 340 93 299 54 q 413 212 381 132 q 452 329 432 260 q 489 482 471 399 q 515 636 506 561 q 525 771 525 711 q 492 909 525 862 q 398 957 460 957 m 32 242 q 42 386 32 303 q 74 562 53 469 q 115 724 92 649 q 161 850 137 799 q 262 988 203 944 q 402 1032 320 1032 q 558 964 505 1032 q 611 764 611 897 q 600 625 611 705 q 571 455 590 546 q 529 287 551 362 q 484 162 507 212 q 381 23 441 68 q 240 -21 322 -21 q 84 46 137 -21 q 32 242 32 113 "},"":{"x_min":77,"x_max":1021,"ha":1097,"o":"m 567 824 q 566 834 566 828 q 565 849 565 839 q 630 1005 565 934 q 790 1094 694 1077 q 791 1079 791 1087 q 791 1052 791 1070 q 721 893 791 963 q 583 823 651 823 l 578 823 q 573 824 576 823 q 567 824 570 824 m 1021 273 q 881 40 943 105 q 743 -24 820 -24 q 654 -1 709 -24 q 571 20 599 20 q 482 -1 540 20 q 396 -24 424 -24 q 309 5 353 -24 q 221 95 265 35 q 114 295 152 190 q 77 499 77 401 q 161 741 77 648 q 380 835 246 835 q 485 811 426 835 q 569 788 544 788 q 652 812 592 788 q 755 836 711 836 q 889 809 830 836 q 999 725 949 782 q 896 626 929 680 q 863 502 863 571 q 903 366 863 425 q 1021 273 944 307 "},"”":{"x_min":156,"x_max":558,"ha":545,"o":"m 432 910 l 458 1035 l 558 1035 l 531 910 q 477 768 510 809 q 382 717 444 727 l 390 772 q 445 816 424 781 q 470 910 465 852 l 432 910 m 207 910 l 233 1035 l 334 1035 l 307 910 q 252 768 285 810 q 156 717 219 727 l 166 772 q 220 816 199 781 q 245 910 241 852 l 207 910 "},"ö":{"x_min":21,"x_max":543,"ha":624,"o":"m 21 223 q 49 444 21 324 q 116 638 77 565 q 208 746 155 710 q 331 782 262 782 q 488 719 433 782 q 543 539 543 656 q 515 317 543 436 q 446 123 487 199 q 354 15 408 51 q 230 -20 300 -20 q 74 42 127 -20 q 21 223 21 104 m 327 713 q 247 685 282 713 q 185 603 212 658 q 128 420 152 533 q 104 214 104 307 q 137 92 104 134 q 234 50 171 50 q 315 77 279 50 q 377 157 351 104 q 435 344 411 230 q 460 547 460 459 q 426 670 460 628 q 327 713 392 713 m 425 873 l 446 976 l 536 976 l 514 873 l 425 873 m 220 873 l 242 976 l 331 976 l 309 873 l 220 873 "},"Õ":{"x_min":47,"x_max":722,"ha":774,"o":"m 462 978 q 346 939 395 978 q 259 819 297 901 q 215 702 236 770 q 175 548 194 634 q 146 391 156 461 q 137 271 137 321 q 179 110 137 164 q 306 57 221 57 q 424 95 374 57 q 512 216 474 134 q 557 336 535 265 q 597 493 579 406 q 625 649 615 579 q 635 769 635 720 q 590 924 635 871 q 462 978 546 978 m 47 272 q 57 401 47 326 q 87 565 67 476 q 129 724 105 649 q 179 850 154 798 q 301 1007 232 957 q 467 1057 371 1057 q 657 981 593 1057 q 722 758 722 905 q 712 631 722 701 q 686 478 703 560 q 640 309 665 384 q 591 183 616 234 q 469 27 539 77 q 302 -22 399 -22 q 112 53 177 -22 q 47 272 47 128 m 692 1277 q 647 1184 676 1216 q 579 1153 619 1153 q 554 1155 567 1153 q 529 1163 541 1158 l 494 1176 q 477 1182 485 1180 q 462 1185 468 1185 q 428 1173 442 1185 q 408 1139 415 1162 l 357 1139 q 399 1231 371 1199 q 466 1264 428 1264 q 490 1261 479 1264 q 515 1255 502 1259 l 550 1242 q 570 1236 560 1238 q 590 1235 580 1235 q 622 1245 609 1235 q 641 1277 635 1255 l 692 1277 "},"ć":{"x_min":22,"x_max":502,"ha":570,"o":"m 501 539 l 430 539 l 430 544 q 397 669 430 625 q 306 713 365 713 q 232 685 265 713 q 174 603 198 657 q 120 418 142 530 q 98 214 98 305 q 129 91 98 134 q 220 48 161 48 q 318 98 277 48 q 377 239 360 148 l 451 239 q 366 46 427 114 q 215 -22 305 -22 q 72 41 122 -22 q 22 221 22 104 q 47 442 22 322 q 110 638 73 562 q 195 746 144 710 q 311 782 245 782 q 452 722 403 782 q 501 552 501 663 l 501 539 m 330 844 l 275 844 l 401 1028 l 502 1028 l 330 844 "},"þ":{"x_min":-75,"x_max":554,"ha":633,"o":"m 356 712 q 267 676 308 712 q 197 574 225 640 q 175 512 186 547 q 148 406 165 477 q 123 283 130 329 q 116 205 116 238 q 148 92 116 132 q 238 52 180 52 q 332 92 290 52 q 405 211 374 132 q 453 381 435 286 q 472 554 472 477 q 442 671 472 631 q 356 712 413 712 m -75 -264 l 200 1035 l 282 1035 l 204 690 q 280 759 240 737 q 366 781 320 781 q 507 720 460 781 q 554 539 554 660 q 522 308 554 428 q 444 111 491 187 q 354 14 405 47 q 242 -18 303 -18 q 141 7 181 -18 q 80 85 101 32 l 6 -264 l -75 -264 "},"]":{"x_min":-97,"x_max":400,"ha":425,"o":"m -97 -264 l -82 -189 l 58 -189 l 302 960 l 162 960 l 177 1035 l 400 1035 l 124 -264 l -97 -264 "},"8":{"x_min":14,"x_max":606,"ha":648,"o":"m 235 736 q 265 624 235 664 q 350 585 296 585 q 472 648 425 585 q 520 810 520 711 q 487 920 520 880 q 397 960 454 960 q 281 895 327 960 q 235 736 235 831 m 97 233 q 134 96 97 145 q 239 48 172 48 q 391 125 332 48 q 450 325 450 203 q 409 460 450 411 q 297 510 368 510 q 154 431 211 510 q 97 233 97 352 m 225 570 q 170 657 188 612 q 152 751 152 702 q 221 952 152 871 q 395 1034 291 1034 q 548 974 490 1034 q 606 814 606 914 q 563 641 606 713 q 438 531 520 569 q 509 435 487 486 q 531 316 531 384 q 451 74 531 171 q 250 -22 371 -22 q 77 46 140 -22 q 14 232 14 114 q 69 445 14 357 q 225 570 124 533 "},"R":{"x_min":-8,"x_max":684,"ha":714,"o":"m 200 564 l 281 564 q 522 623 445 564 q 599 807 599 682 q 542 919 599 882 q 369 956 485 956 l 284 956 l 200 564 m -8 0 l 212 1035 l 402 1035 q 613 971 542 1032 q 684 796 684 911 q 628 616 684 688 q 477 523 573 544 q 555 458 530 500 q 580 351 580 416 q 558 199 580 294 q 537 74 537 104 q 543 38 537 51 q 563 17 549 24 l 563 0 l 456 0 q 447 29 450 16 q 445 55 445 43 q 469 196 445 95 q 494 350 494 297 q 444 457 490 426 q 256 488 398 488 l 184 488 l 80 0 l -8 0 "},"o":{"x_min":21,"x_max":543,"ha":624,"o":"m 21 223 q 49 444 21 324 q 116 638 77 565 q 208 746 155 710 q 331 782 262 782 q 488 719 433 782 q 543 539 543 656 q 515 317 543 436 q 446 123 487 199 q 354 15 408 51 q 230 -20 300 -20 q 74 42 127 -20 q 21 223 21 104 m 327 713 q 247 685 282 713 q 185 603 212 658 q 128 420 152 533 q 104 214 104 307 q 137 92 104 134 q 234 50 171 50 q 315 77 279 50 q 377 157 351 104 q 435 344 411 230 q 460 547 460 459 q 426 670 460 628 q 327 713 392 713 "},"5":{"x_min":16,"x_max":624.34375,"ha":648,"o":"m 90 524 l 232 1019 l 624 1019 l 601 942 l 293 942 l 208 644 q 271 668 245 661 q 321 675 298 675 q 483 599 422 675 q 545 394 545 523 q 455 96 545 215 q 230 -22 365 -22 q 71 50 127 -22 q 16 256 16 122 l 16 266 l 99 266 q 134 104 100 157 q 239 52 169 52 q 394 151 333 52 q 455 409 455 250 q 415 549 455 499 q 305 600 375 600 q 232 581 265 600 q 174 524 200 562 l 90 524 "},"õ":{"x_min":21,"x_max":546,"ha":624,"o":"m 21 223 q 49 444 21 324 q 116 638 77 565 q 208 746 155 710 q 331 782 262 782 q 488 719 433 782 q 543 539 543 656 q 515 317 543 436 q 446 123 487 199 q 354 15 408 51 q 230 -20 300 -20 q 74 42 127 -20 q 21 223 21 104 m 327 713 q 247 685 282 713 q 185 603 212 658 q 128 420 152 533 q 104 214 104 307 q 137 92 104 134 q 234 50 171 50 q 315 77 279 50 q 377 157 351 104 q 435 344 411 230 q 460 547 460 459 q 426 670 460 628 q 327 713 392 713 m 546 1002 q 501 909 530 941 q 433 878 473 878 q 408 880 421 878 q 383 888 395 883 l 348 901 q 331 907 339 905 q 316 910 322 910 q 282 898 296 910 q 262 864 269 887 l 211 864 q 253 956 225 924 q 320 989 282 989 q 344 986 333 989 q 369 980 356 984 l 404 967 q 424 961 414 963 q 444 960 434 960 q 476 970 463 960 q 495 1002 489 980 l 546 1002 "},",":{"x_min":-36,"x_max":142,"ha":325,"o":"m 14 0 l 40 125 l 142 125 l 114 0 q 59 -141 92 -100 q -36 -193 27 -181 l -26 -137 q 28 -92 7 -127 q 54 0 49 -57 l 14 0 "},"d":{"x_min":24,"x_max":656,"ha":633,"o":"m 221 54 q 311 88 270 54 q 380 190 352 123 q 402 251 392 215 q 429 357 413 287 q 454 478 446 431 q 461 558 461 525 q 429 672 461 632 q 339 712 397 712 q 255 680 293 712 q 186 585 216 648 q 128 405 151 512 q 105 215 105 299 q 134 95 105 136 q 221 54 163 54 m 656 1035 l 437 0 l 354 0 l 368 67 q 294 3 334 24 q 207 -17 253 -17 q 70 44 116 -17 q 24 225 24 105 q 55 456 24 336 q 133 654 86 577 q 223 750 172 717 q 335 783 274 783 q 435 757 395 783 q 497 680 475 732 l 572 1035 l 656 1035 "},"\"":{"x_min":68,"x_max":305,"ha":374,"o":"m 305 973 l 305 598 l 247 598 l 247 973 l 305 973 m 126 973 l 126 598 l 68 598 l 68 973 l 126 973 "},"˙":{"x_min":366,"x_max":497,"ha":694,"o":"m 366 868 l 390 985 l 497 985 l 471 868 l 366 868 "},"ê":{"x_min":24,"x_max":509,"ha":591,"o":"m 135 458 l 425 458 q 430 517 428 494 q 432 555 432 539 q 399 671 432 630 q 310 713 367 713 q 206 652 247 713 q 135 458 164 591 m 494 389 l 120 388 q 105 274 108 309 q 102 214 102 239 q 133 92 102 135 q 223 49 165 49 q 317 96 278 49 q 381 243 356 143 l 459 243 q 368 46 430 114 q 218 -21 306 -21 q 74 42 124 -21 q 24 222 24 105 q 50 443 24 322 q 112 638 76 564 q 197 745 146 709 q 314 782 248 782 q 458 721 407 782 q 509 548 509 660 q 505 486 509 523 q 494 389 502 449 m 502 844 l 450 844 l 361 958 l 225 844 l 167 844 l 321 1028 l 413 1028 l 502 844 "},"„":{"x_min":-37,"x_max":366,"ha":543,"o":"m 239 0 l 265 125 l 366 125 l 339 0 q 285 -140 318 -99 q 188 -193 251 -181 l 198 -137 q 252 -92 231 -127 q 278 0 272 -57 l 239 0 m 13 0 l 40 125 l 141 125 l 114 0 q 59 -140 93 -99 q -37 -193 26 -181 l -27 -137 q 27 -92 6 -127 q 53 0 48 -57 l 13 0 "},"Â":{"x_min":-115,"x_max":592,"ha":632,"o":"m 162 392 l 419 392 l 396 898 l 162 392 m 472 1035 l 528 0 l 439 0 l 422 313 l 126 313 l -20 0 l -115 0 l 375 1035 l 472 1035 m 592 1119 l 540 1119 l 451 1233 l 315 1119 l 257 1119 l 411 1303 l 503 1303 l 592 1119 "},"Í":{"x_min":-5,"x_max":428,"ha":298,"o":"m -5 0 l 215 1035 l 305 1035 l 83 0 l -5 0 m 256 1119 l 201 1119 l 327 1303 l 428 1303 l 256 1119 "},"´":{"x_min":347,"x_max":574,"ha":694,"o":"m 402 844 l 347 844 l 473 1028 l 574 1028 l 402 844 "},"Ú":{"x_min":40,"x_max":785,"ha":768,"o":"m 202 1035 l 291 1035 l 143 340 q 132 280 136 309 q 129 228 129 252 q 175 102 129 145 q 312 59 221 59 q 462 115 411 59 q 551 351 512 171 l 696 1035 l 785 1035 l 636 332 q 520 49 591 120 q 307 -22 449 -22 q 110 41 181 -22 q 40 218 40 104 q 64 387 40 268 l 66 397 l 202 1035 m 491 1119 l 436 1119 l 562 1303 l 663 1303 l 491 1119 "},"Ý":{"x_min":71,"x_max":689,"ha":562,"o":"m 123 0 l 221 458 l 71 1035 l 158 1035 l 283 554 l 591 1035 l 689 1035 l 307 444 l 212 0 l 123 0 m 388 1119 l 333 1119 l 459 1303 l 560 1303 l 388 1119 "},"Ω":{"x_min":87,"x_max":987,"ha":1075,"o":"m 984 82 l 984 0 l 595 0 l 595 69 q 818 277 743 161 q 893 533 893 394 q 793 830 893 715 q 537 945 694 945 q 280 830 380 945 q 181 533 181 715 q 255 277 181 394 q 479 69 330 161 l 479 0 l 91 0 l 91 82 l 331 82 q 146 282 206 171 q 87 532 87 393 q 214 886 87 747 q 537 1026 342 1026 q 859 886 731 1026 q 987 532 987 747 q 926 282 987 393 q 742 82 866 171 l 984 82 "},"Ö":{"x_min":47,"x_max":722,"ha":774,"o":"m 462 978 q 346 939 395 978 q 259 819 297 901 q 215 702 236 770 q 175 548 194 634 q 146 391 156 461 q 137 271 137 321 q 179 110 137 164 q 306 57 221 57 q 424 95 374 57 q 512 216 474 134 q 557 336 535 265 q 597 493 579 406 q 625 649 615 579 q 635 769 635 720 q 590 924 635 871 q 462 978 546 978 m 47 272 q 57 401 47 326 q 87 565 67 476 q 129 724 105 649 q 179 850 154 798 q 301 1007 232 957 q 467 1057 371 1057 q 657 981 593 1057 q 722 758 722 905 q 712 631 722 701 q 686 478 703 560 q 640 309 665 384 q 591 183 616 234 q 469 27 539 77 q 302 -22 399 -22 q 112 53 177 -22 q 47 272 47 128 m 571 1148 l 592 1251 l 682 1251 l 660 1148 l 571 1148 m 366 1148 l 388 1251 l 477 1251 l 455 1148 l 366 1148 "},"z":{"x_min":-78,"x_max":463,"ha":457,"o":"m -78 0 l -62 71 l 355 691 l 62 691 l 78 762 l 463 762 l 449 682 l 27 71 l 344 71 l 330 0 l -78 0 "},"™":{"x_min":186,"x_max":925,"ha":1157,"o":"m 627 986 l 745 687 l 855 986 l 925 986 l 925 627 l 885 627 l 885 951 l 762 627 l 729 627 l 600 951 l 600 627 l 559 627 l 559 986 l 627 986 m 470 986 l 470 951 l 352 951 l 352 627 l 307 627 l 307 951 l 186 951 l 186 986 l 470 986 "},"ã":{"x_min":-14,"x_max":529,"ha":567,"o":"m 169 576 l 87 576 q 167 727 108 675 q 320 779 226 779 q 444 739 394 779 q 494 641 494 699 q 489 588 494 618 q 475 512 485 557 l 398 143 q 395 126 396 135 q 394 106 394 118 q 408 69 394 83 q 445 56 421 56 q 456 56 452 56 q 463 57 460 56 l 450 -5 q 422 -9 435 -8 q 398 -10 409 -10 q 341 5 362 -10 q 314 56 321 22 q 238 0 276 18 q 155 -17 199 -17 q 32 32 79 -17 q -14 162 -14 82 q 36 318 -14 260 q 247 429 87 376 q 382 502 353 464 q 411 608 411 539 q 384 683 411 657 q 307 710 357 710 q 220 679 252 710 q 169 576 188 648 m 370 393 l 364 392 q 67 171 67 301 q 95 87 67 118 q 173 56 124 56 q 295 134 249 56 q 370 393 342 213 m 529 1002 q 484 909 513 941 q 416 878 456 878 q 391 880 404 878 q 366 888 378 883 l 331 901 q 314 907 322 905 q 299 910 305 910 q 265 898 279 910 q 245 864 252 887 l 194 864 q 236 956 208 924 q 303 989 265 989 q 327 986 316 989 q 352 980 339 984 l 387 967 q 407 961 397 963 q 427 960 417 960 q 459 970 446 960 q 478 1002 472 980 l 529 1002 "},"æ":{"x_min":3,"x_max":850,"ha":928,"o":"m 474 458 l 766 458 q 768 481 767 466 q 775 555 775 535 q 742 669 775 628 q 651 710 709 710 q 546 650 588 710 q 474 458 504 590 m 387 393 l 381 392 q 85 171 85 301 q 113 87 85 118 q 190 56 142 56 q 312 134 266 56 q 387 393 359 213 m 494 698 q 562 759 523 739 q 654 779 602 779 q 799 717 748 779 q 850 540 850 655 q 846 479 850 514 q 836 389 843 445 l 459 388 q 446 283 450 325 q 441 213 441 242 q 473 90 441 133 q 563 47 505 47 q 657 94 619 47 q 722 241 696 141 l 801 241 q 710 45 771 111 q 558 -21 649 -21 q 440 14 484 -21 q 378 124 396 50 q 286 13 335 48 q 173 -21 237 -21 q 50 30 98 -21 q 3 162 3 81 q 53 318 3 260 q 264 428 104 376 q 399 501 370 464 q 428 608 428 539 q 401 683 428 657 q 323 710 374 710 q 238 679 270 710 q 186 576 205 648 l 105 576 q 184 727 125 675 q 339 779 244 779 q 436 757 394 779 q 494 698 478 735 "},"É":{"x_min":-11,"x_max":658,"ha":625,"o":"m -11 0 l 208 1035 l 658 1035 l 641 958 l 281 958 l 201 582 l 552 582 l 533 501 l 184 501 l 95 81 l 480 81 l 463 0 l -11 0 m 424 1119 l 369 1119 l 495 1303 l 596 1303 l 424 1119 "},"~":{"x_min":121,"x_max":1038,"ha":1157,"o":"m 1038 438 q 900 363 966 388 q 775 339 835 339 q 595 380 708 339 q 580 385 584 384 q 557 393 572 388 q 383 434 444 434 q 264 408 327 434 q 121 325 202 383 l 121 388 q 257 462 192 438 q 383 487 322 487 q 567 445 451 487 q 580 441 575 442 q 598 434 585 438 q 775 393 712 393 q 894 418 831 393 q 1038 500 956 443 l 1038 438 "},"³":{"x_min":14,"x_max":403,"ha":428,"o":"m 17 584 l 74 584 q 71 565 72 574 q 71 544 71 555 q 97 465 71 494 q 168 436 124 436 q 256 481 220 436 q 293 594 293 527 q 256 676 293 650 q 139 706 219 703 l 149 747 l 167 747 q 301 780 255 747 q 347 879 347 814 q 322 952 347 925 q 257 980 297 980 q 195 954 220 980 q 156 879 169 928 l 100 879 q 156 984 112 945 q 264 1023 201 1023 q 364 984 325 1023 q 403 884 403 945 q 368 776 403 817 q 266 719 333 734 q 331 667 311 697 q 351 591 351 636 q 298 448 351 503 q 165 393 246 393 q 55 432 96 393 q 14 538 14 471 q 15 558 14 542 q 17 584 16 574 "},"¡":{"x_min":20,"x_max":328,"ha":321,"o":"m 260 784 l 105 0 l 20 0 l 205 784 l 260 784 m 328 1035 l 301 910 l 200 910 l 226 1035 l 328 1035 "},"[":{"x_min":-7,"x_max":491,"ha":425,"o":"m 491 1035 l 475 960 l 335 960 l 91 -189 l 230 -189 l 214 -264 l -7 -264 l 268 1035 l 491 1035 "},"%":{"x_min":68,"x_max":861,"ha":929,"o":"m 680 440 q 601 392 627 440 q 575 250 575 345 q 600 107 575 154 q 680 61 626 61 q 759 108 732 61 q 786 250 786 155 q 759 392 786 345 q 680 440 732 440 m 680 501 q 813 434 765 501 q 861 250 861 368 q 813 65 861 131 q 680 0 765 0 q 547 65 595 0 q 500 250 500 131 q 547 434 500 368 q 680 501 595 501 m 249 974 q 169 926 196 974 q 143 784 143 878 q 169 641 143 688 q 249 595 196 595 q 328 641 302 595 q 354 784 354 688 q 328 927 354 880 q 249 974 302 974 m 68 784 q 115 969 68 903 q 248 1035 163 1035 q 381 969 334 1035 q 429 784 429 903 q 381 600 429 666 q 248 534 334 534 q 115 600 163 534 q 68 784 68 666 m 221 -19 l 644 1055 l 707 1055 l 286 -19 l 221 -19 "},"P":{"x_min":-8,"x_max":685,"ha":692,"o":"m 197 547 l 282 547 q 522 606 449 547 q 596 799 596 665 q 540 917 596 878 q 369 956 484 956 l 284 956 l 197 547 m -8 0 l 212 1035 l 402 1035 q 613 972 541 1035 q 685 790 685 910 q 656 647 685 713 q 577 540 628 581 q 461 484 530 501 q 255 468 392 468 l 180 468 l 82 0 l -8 0 "},"∏":{"x_min":111,"x_max":900,"ha":1011,"o":"m 111 999 l 900 999 l 900 -266 l 808 -266 l 808 916 l 203 916 l 203 -266 l 111 -266 l 111 999 "},"_":{"x_min":0,"x_max":694,"ha":694,"o":"m 694 -274 l 694 -328 l 0 -328 l 0 -274 l 694 -274 "},"ñ":{"x_min":-21,"x_max":560,"ha":612,"o":"m -21 0 l 140 762 l 218 762 l 201 681 q 290 753 244 730 q 393 777 337 777 q 502 739 461 777 q 543 639 543 702 q 540 597 543 618 q 534 556 538 577 l 416 0 l 335 0 l 453 560 q 458 591 456 575 q 460 618 460 606 q 436 685 460 662 q 371 709 413 709 q 242 650 297 709 q 165 486 187 591 l 61 0 l -21 0 m 560 1002 q 515 909 544 941 q 447 878 487 878 q 422 880 435 878 q 397 888 409 883 l 362 901 q 345 907 353 905 q 330 910 336 910 q 296 898 310 910 q 276 864 283 887 l 225 864 q 267 956 239 924 q 334 989 296 989 q 358 986 347 989 q 383 980 370 984 l 418 967 q 438 961 428 963 q 458 960 448 960 q 490 970 477 960 q 509 1002 503 980 l 560 1002 "},"‚":{"x_min":-36,"x_max":142,"ha":319,"o":"m 14 0 l 40 125 l 142 125 l 114 0 q 59 -141 92 -100 q -36 -193 27 -181 l -26 -137 q 28 -92 7 -127 q 54 0 49 -57 l 14 0 "},"Æ":{"x_min":-144,"x_max":1024,"ha":991,"o":"m 355 0 l 422 313 l 138 313 l -47 0 l -144 0 l 482 1035 l 1024 1035 l 1009 958 l 648 958 l 568 582 l 920 582 l 901 501 l 551 501 l 461 81 l 847 81 l 831 0 l 355 0 m 184 392 l 439 392 l 559 958 l 519 958 l 184 392 "},"₣":{"x_min":-11,"x_max":1016,"ha":1003,"o":"m -11 0 l 208 1035 l 658 1035 l 641 958 l 281 958 l 208 611 l 556 611 l 540 530 l 190 530 l 77 0 l -11 0 m 589 0 l 751 762 l 829 762 l 811 681 q 898 758 852 734 q 1000 783 943 783 l 1016 783 l 994 690 q 847 643 895 690 q 769 459 799 597 l 672 0 l 589 0 "},"ğ":{"x_min":-12,"x_max":599,"ha":633,"o":"m 515 762 l 599 762 l 444 38 q 350 -203 406 -142 q 187 -264 293 -264 q 42 -212 96 -264 q -12 -74 -12 -160 l -12 -68 l 65 -68 q 101 -160 68 -128 q 194 -193 134 -193 q 304 -141 267 -193 q 368 67 341 -90 q 293 3 334 24 q 207 -17 253 -17 q 70 44 116 -17 q 24 225 24 105 q 55 456 24 336 q 133 654 86 577 q 223 750 172 717 q 335 783 274 783 q 435 758 396 783 q 497 680 474 733 l 515 762 m 221 54 q 311 88 270 54 q 380 190 352 123 q 402 251 392 215 q 429 357 413 287 q 453 478 446 431 q 461 558 461 525 q 429 672 461 632 q 339 712 397 712 q 255 680 293 712 q 186 585 216 648 q 128 405 151 512 q 105 215 105 299 q 134 95 105 136 q 221 54 163 54 m 257 1019 l 304 1019 q 327 949 304 972 q 396 927 350 927 q 477 950 443 927 q 530 1019 511 974 l 580 1019 q 510 894 558 936 q 390 852 462 852 q 291 891 325 852 q 257 1005 257 930 l 257 1019 "},"ª":{"x_min":-11,"x_max":371,"ha":425,"o":"m 127 906 l 65 906 q 125 1011 80 975 q 240 1048 170 1048 q 333 1020 296 1048 q 371 950 371 992 q 367 915 371 936 q 356 860 364 893 l 298 602 q 296 590 297 596 q 296 575 296 584 q 306 550 296 560 q 335 541 317 541 q 343 541 339 541 q 348 542 346 541 l 337 497 q 314 494 324 495 q 298 493 305 493 q 256 505 272 493 q 236 542 241 517 q 178 503 207 515 q 116 491 150 491 q 24 525 59 491 q -11 615 -11 560 q 27 725 -11 685 q 185 802 66 766 q 287 853 265 827 q 309 928 309 880 q 288 981 309 963 q 230 1000 268 1000 q 165 978 190 1000 q 127 906 141 956 m 277 778 l 270 776 q 51 621 51 712 q 72 562 51 584 q 130 541 93 541 q 222 595 187 541 q 277 778 257 650 "},"Œ":{"x_min":47,"x_max":1159,"ha":1126,"o":"m 461 978 q 346 939 395 978 q 259 819 297 901 q 215 702 236 770 q 175 548 194 634 q 146 394 156 463 q 137 273 137 324 q 177 111 137 165 q 299 57 218 57 q 419 97 366 57 q 512 218 472 137 q 556 333 535 266 q 596 493 577 400 q 624 651 615 580 q 634 769 634 723 q 590 924 634 871 q 461 978 545 978 m 493 0 l 514 97 q 420 8 476 38 q 286 -21 364 -21 q 109 55 171 -21 q 47 273 47 131 q 57 398 47 324 q 87 565 67 473 q 129 722 105 649 q 179 850 153 795 q 300 1007 232 957 q 464 1057 369 1057 q 599 1020 546 1057 q 682 906 652 983 l 710 1035 l 1159 1035 l 1142 958 l 782 958 l 701 582 l 1053 582 l 1036 501 l 685 501 l 596 81 l 981 81 l 964 0 l 493 0 "},"T":{"x_min":102,"x_max":656,"ha":562,"o":"m 125 0 l 327 954 l 102 954 l 118 1035 l 656 1035 l 639 954 l 421 954 l 216 0 l 125 0 "},"š":{"x_min":-8,"x_max":538,"ha":539,"o":"m -8 204 l 71 204 l 71 189 q 103 85 71 121 q 197 50 136 50 q 301 94 260 50 q 342 206 342 138 q 317 286 342 255 q 221 355 292 318 q 95 450 124 405 q 67 562 67 494 q 128 719 67 657 q 283 781 189 781 q 423 726 371 781 q 475 579 475 671 l 475 577 l 398 577 q 362 675 394 638 q 278 712 329 712 q 182 670 218 712 q 146 561 146 628 q 170 487 146 518 q 266 421 195 457 q 391 329 358 374 q 424 214 424 284 q 359 46 424 113 q 198 -20 295 -20 q 48 36 104 -20 q -8 185 -8 92 l -8 204 m 204 1028 l 255 1028 l 344 913 l 479 1028 l 538 1028 l 384 844 l 294 844 l 204 1028 "},"Þ":{"x_min":-8,"x_max":635,"ha":697,"o":"m 147 313 l 230 313 q 470 372 395 313 q 546 558 546 431 q 491 683 546 643 q 319 723 436 723 l 234 723 l 147 313 m -8 0 l 212 1035 l 301 1035 l 251 802 l 352 802 q 563 739 491 802 q 635 557 635 677 q 606 413 635 480 q 527 306 578 346 q 410 250 479 267 q 204 234 341 234 l 130 234 l 82 0 l -8 0 "},"j":{"x_min":-168,"x_max":281,"ha":261,"o":"m 140 762 l 222 762 l 57 -21 q -12 -221 24 -175 q -120 -268 -49 -268 q -143 -266 -132 -268 q -168 -263 -155 -265 l -156 -197 q -147 -198 -153 -197 q -137 -199 -140 -199 q -73 -170 -94 -199 q -30 -44 -51 -142 l 140 762 m 154 904 l 181 1035 l 281 1035 l 253 904 l 154 904 "},"1":{"x_min":154,"x_max":511,"ha":648,"o":"m 202 0 l 377 825 q 304 813 341 817 q 225 810 266 810 l 154 810 l 165 864 q 341 909 275 867 q 442 1039 408 950 l 511 1039 l 290 0 l 202 0 "},"›":{"x_min":21,"x_max":277,"ha":359,"o":"m 104 574 l 277 425 l 257 331 l 21 179 l 38 262 l 210 386 l 87 494 l 104 574 "},"<":{"x_min":179,"x_max":978,"ha":1157,"o":"m 978 700 l 269 413 l 978 125 l 978 66 l 179 392 l 179 434 l 978 762 l 978 700 "},"t":{"x_min":1,"x_max":324,"ha":306,"o":"m 127 701 l 62 701 l 74 762 l 141 762 l 188 974 l 268 974 l 221 762 l 324 762 l 311 701 l 209 701 l 105 234 q 87 149 92 177 q 83 106 83 121 q 96 66 83 78 q 142 54 110 54 q 163 54 154 54 q 180 56 171 55 l 166 -4 q 133 -8 148 -7 q 108 -10 118 -10 q 29 16 57 -10 q 1 89 1 42 q 6 143 1 110 q 23 227 11 176 l 127 701 "},"¬":{"x_min":172,"x_max":984,"ha":1157,"o":"m 984 581 l 984 241 l 931 241 l 931 525 l 172 525 l 172 581 l 984 581 "},"ù":{"x_min":1,"x_max":562,"ha":612,"o":"m 562 762 l 399 0 l 324 0 l 339 74 q 255 2 302 26 q 150 -21 207 -21 q 41 16 82 -21 q 1 116 1 53 q 3 153 1 133 q 11 199 6 173 l 131 762 l 211 762 l 90 194 q 85 163 87 179 q 84 134 84 147 q 107 69 84 92 q 172 47 130 47 q 302 106 246 47 q 381 268 359 166 l 485 762 l 562 762 m 453 844 l 396 844 l 217 1028 l 322 1028 l 453 844 "},"ï":{"x_min":-21,"x_max":374,"ha":261,"o":"m -21 0 l 140 762 l 222 762 l 60 0 l -21 0 m 263 873 l 284 976 l 374 976 l 352 873 l 263 873 m 58 873 l 80 976 l 169 976 l 147 873 l 58 873 "},"Ò":{"x_min":47,"x_max":722,"ha":774,"o":"m 462 978 q 346 939 395 978 q 259 819 297 901 q 215 702 236 770 q 175 548 194 634 q 146 391 156 461 q 137 271 137 321 q 179 110 137 164 q 306 57 221 57 q 424 95 374 57 q 512 216 474 134 q 557 336 535 265 q 597 493 579 406 q 625 649 615 579 q 635 769 635 720 q 590 924 635 871 q 462 978 546 978 m 47 272 q 57 401 47 326 q 87 565 67 476 q 129 724 105 649 q 179 850 154 798 q 301 1007 232 957 q 467 1057 371 1057 q 657 981 593 1057 q 722 758 722 905 q 712 631 722 701 q 686 478 703 560 q 640 309 665 384 q 591 183 616 234 q 469 27 539 77 q 302 -22 399 -22 q 112 53 177 -22 q 47 272 47 128 m 595 1119 l 538 1119 l 359 1303 l 464 1303 l 595 1119 "},"&":{"x_min":62,"x_max":766,"ha":851,"o":"m 368 641 q 484 740 450 693 q 519 849 519 788 q 490 942 519 910 q 409 975 462 975 q 331 940 361 975 q 301 848 301 905 q 317 754 301 806 q 368 641 334 702 m 559 83 q 445 8 505 32 q 313 -16 386 -16 q 131 58 201 -16 q 62 251 62 133 q 117 434 62 352 q 296 598 173 517 l 273 644 q 231 747 245 698 q 218 842 218 796 q 272 992 218 936 q 418 1048 326 1048 q 554 996 504 1048 q 604 854 604 944 q 560 708 604 770 q 402 572 517 646 l 577 227 q 636 323 612 276 q 676 424 660 371 l 766 424 q 710 282 746 351 q 620 145 674 214 l 692 0 l 599 0 l 559 83 m 513 157 l 324 529 q 186 404 228 467 q 144 258 144 340 q 191 118 144 172 q 314 65 239 65 q 419 87 371 65 q 513 157 466 109 "},"":{"x_min":-10,"x_max":657,"ha":648,"o":"m 30 574 l 56 632 l 146 632 q 178 736 161 688 q 213 826 194 783 q 320 982 260 933 q 463 1032 380 1032 q 607 964 557 1032 q 657 772 657 897 q 655 736 657 754 q 652 700 654 718 l 571 700 q 574 734 573 715 q 576 772 576 752 q 544 910 576 863 q 452 957 513 957 q 360 915 400 957 q 284 780 320 873 q 257 705 268 740 q 235 632 245 670 l 549 632 l 523 574 l 220 574 q 197 465 211 538 l 194 448 l 466 447 l 439 389 l 183 389 q 182 375 183 384 q 173 251 173 295 q 203 103 173 152 q 293 54 233 54 q 411 120 362 54 q 493 327 459 186 l 574 327 q 465 66 537 154 q 288 -21 392 -21 q 140 50 193 -21 q 87 250 87 121 l 87 273 q 91 333 88 305 q 97 389 93 361 l -10 389 l 16 448 l 106 448 q 128 556 112 480 q 132 574 131 568 l 30 574 "},"˝":{"x_min":301,"x_max":657,"ha":694,"o":"m 566 1028 l 657 1028 l 508 844 l 461 844 l 566 1028 m 391 1028 l 478 1028 l 343 844 l 301 844 l 391 1028 "},"I":{"x_min":-5,"x_max":305,"ha":298,"o":"m -5 0 l 215 1035 l 305 1035 l 83 0 l -5 0 "},"G":{"x_min":47,"x_max":723,"ha":768,"o":"m 567 0 l 492 0 l 501 86 q 410 4 462 31 q 292 -22 359 -22 q 111 55 175 -22 q 47 273 47 132 q 56 399 47 327 q 87 563 66 472 q 129 724 105 651 q 179 850 153 797 q 301 1007 232 957 q 467 1057 371 1057 q 655 986 588 1057 q 723 789 723 916 q 722 771 723 781 q 720 741 721 760 l 632 741 q 633 756 633 748 q 634 779 634 764 q 588 926 634 874 q 459 978 543 978 q 345 940 392 978 q 257 816 297 902 q 214 699 235 766 q 175 548 193 631 q 146 391 156 463 q 137 269 137 320 q 178 112 137 165 q 301 60 220 60 q 471 154 404 60 q 570 438 539 249 l 346 438 l 363 519 l 676 519 l 567 0 "},"`":{"x_min":267,"x_max":503,"ha":694,"o":"m 503 844 l 446 844 l 267 1028 l 372 1028 l 503 844 "},"·":{"x_min":107,"x_max":218,"ha":325,"o":"m 107 471 q 122 510 107 494 q 162 527 138 527 q 201 510 184 527 q 218 471 218 494 q 201 432 218 449 q 162 416 184 416 q 123 432 139 416 q 107 471 107 449 "},"¿":{"x_min":52,"x_max":519,"ha":627,"o":"m 443 791 q 389 618 417 672 q 311 512 361 564 q 273 473 299 498 q 138 213 138 335 q 175 99 138 142 q 272 57 212 57 q 390 110 349 57 q 437 270 430 163 l 519 270 q 453 57 517 134 q 280 -20 390 -20 q 113 40 174 -20 q 52 207 52 101 q 83 360 52 292 q 189 502 114 427 q 219 531 199 512 q 366 791 340 641 l 443 791 m 495 1035 l 470 917 l 372 917 l 398 1035 l 495 1035 "},"ý":{"x_min":-136,"x_max":539,"ha":521,"o":"m -136 -258 l -120 -195 q -105 -195 -114 -195 q -77 -198 -83 -198 q 10 -162 -23 -198 q 94 -1 43 -127 l 67 762 l 145 762 l 168 153 l 452 762 l 539 762 l 193 19 l 187 5 q -67 -264 61 -264 q -120 -259 -82 -264 q -136 -258 -129 -259 m 316 844 l 261 844 l 387 1028 l 488 1028 l 316 844 "},"º":{"x_min":16,"x_max":407,"ha":468,"o":"m 16 659 q 37 813 16 729 q 87 950 58 898 q 156 1025 116 1000 q 249 1050 196 1050 q 366 1006 325 1050 q 407 880 407 962 q 386 726 407 809 q 336 588 366 643 q 266 514 307 539 q 173 489 226 489 q 55 532 95 489 q 16 659 16 575 m 245 1002 q 185 983 211 1002 q 140 925 158 964 q 96 798 114 877 q 78 654 78 719 q 103 567 78 597 q 176 538 128 538 q 237 556 210 538 q 283 613 264 575 q 326 744 308 664 q 345 886 345 824 q 319 972 345 942 q 245 1002 294 1002 "},"∞":{"x_min":161,"x_max":995,"ha":1157,"o":"m 602 377 q 687 273 638 307 q 796 239 735 239 q 916 291 869 239 q 963 426 963 344 q 919 559 963 507 q 811 612 876 612 q 704 559 752 612 q 602 377 657 507 m 554 454 q 471 557 519 523 q 360 592 422 592 q 240 539 286 592 q 194 405 194 487 q 237 273 194 325 q 345 221 280 221 q 452 272 404 221 q 554 454 499 323 m 566 483 q 665 623 611 577 q 785 669 719 669 q 934 597 873 669 q 995 417 995 525 q 940 236 995 305 q 798 168 886 168 q 686 209 734 168 q 589 345 637 250 q 488 207 541 251 q 371 164 436 164 q 222 236 283 164 q 161 414 161 308 q 215 596 161 527 q 357 665 269 665 q 474 621 423 665 q 566 483 524 577 "},";":{"x_min":-36,"x_max":267,"ha":325,"o":"m 14 0 l 40 125 l 142 125 l 114 0 q 59 -141 92 -100 q -36 -193 27 -181 l -26 -137 q 28 -92 7 -127 q 54 0 49 -57 l 14 0 m 138 600 l 163 721 l 267 721 l 241 600 l 138 600 "},"6":{"x_min":36,"x_max":623,"ha":648,"o":"m 125 234 q 161 102 125 150 q 262 54 198 54 q 406 153 346 54 q 467 389 467 253 q 430 520 467 472 q 329 569 393 569 q 184 470 244 569 q 125 234 125 371 m 623 800 l 542 804 q 509 920 539 879 q 424 961 479 961 q 264 856 331 961 q 162 545 198 751 q 248 619 204 595 q 346 644 293 644 q 502 578 444 644 q 560 398 560 512 q 476 97 560 215 q 261 -20 392 -20 q 96 58 157 -20 q 36 271 36 136 q 65 529 36 382 q 139 785 94 675 q 261 968 188 905 q 426 1032 335 1032 q 566 969 513 1032 q 623 800 618 907 "},"n":{"x_min":-21,"x_max":543,"ha":612,"o":"m -21 0 l 140 762 l 218 762 l 201 681 q 290 753 244 730 q 393 777 337 777 q 502 739 461 777 q 543 639 543 702 q 540 597 543 618 q 534 556 538 577 l 416 0 l 335 0 l 453 560 q 458 591 456 575 q 460 618 460 606 q 436 685 460 662 q 371 709 413 709 q 242 650 297 709 q 165 486 187 591 l 61 0 l -21 0 "},"¤":{"x_min":-10,"x_max":657,"ha":648,"o":"m 30 574 l 56 632 l 146 632 q 178 736 161 688 q 213 826 194 783 q 320 982 260 933 q 463 1032 380 1032 q 607 964 557 1032 q 657 772 657 897 q 655 736 657 754 q 652 700 654 718 l 571 700 q 574 734 573 715 q 576 772 576 752 q 544 910 576 863 q 452 957 513 957 q 360 915 400 957 q 284 780 320 873 q 257 705 268 740 q 235 632 245 670 l 549 632 l 523 574 l 220 574 q 197 465 211 538 l 194 448 l 466 447 l 439 389 l 183 389 q 182 375 183 384 q 173 251 173 295 q 203 103 173 152 q 293 54 233 54 q 411 120 362 54 q 493 327 459 186 l 574 327 q 465 66 537 154 q 288 -21 392 -21 q 140 50 193 -21 q 87 250 87 121 l 87 273 q 91 333 88 305 q 97 389 93 361 l -10 389 l 16 448 l 106 448 q 128 556 112 480 q 132 574 131 568 l 30 574 "},"∂":{"x_min":92,"x_max":610,"ha":694,"o":"m 509 392 q 520 490 516 439 q 524 599 524 541 q 498 779 524 720 q 419 839 472 839 q 351 789 388 839 q 277 739 314 739 q 245 751 258 739 q 231 783 231 764 q 273 852 231 823 q 373 882 314 882 q 546 782 482 882 q 610 510 610 682 q 520 132 610 283 q 301 -18 431 -18 q 149 53 207 -18 q 92 243 92 124 q 164 444 92 360 q 339 528 237 528 q 446 494 405 528 q 509 392 488 461 m 483 311 q 451 440 483 396 q 358 485 419 485 q 228 400 278 485 q 179 176 179 315 q 211 55 179 97 q 304 13 243 13 q 432 97 381 13 q 483 311 483 182 "},"p":{"x_min":-75,"x_max":554,"ha":633,"o":"m 356 712 q 267 676 308 712 q 197 574 225 640 q 175 512 185 548 q 148 406 164 475 q 123 285 130 331 q 116 205 116 239 q 148 92 116 132 q 238 52 180 52 q 323 83 284 52 q 391 179 361 115 q 448 358 425 252 q 472 549 472 465 q 443 670 472 629 q 356 712 414 712 m -75 -264 l 143 762 l 219 762 l 204 690 q 280 758 241 736 q 360 781 318 781 q 506 721 459 781 q 554 539 554 662 q 523 307 554 427 q 444 111 492 187 q 354 14 405 47 q 242 -18 303 -18 q 141 7 181 -18 q 80 85 101 32 l 6 -264 l -75 -264 "},"‡":{"x_min":-12,"x_max":619,"ha":650,"o":"m 133 -197 l 200 116 l -12 116 l 2 188 l 213 188 l 312 650 l 99 650 l 115 723 l 327 723 l 394 1035 l 473 1035 l 406 723 l 619 723 l 604 650 l 391 650 l 292 188 l 505 188 l 490 116 l 277 116 l 212 -197 l 133 -197 "},"√":{"x_min":36,"x_max":857,"ha":857,"o":"m 857 1102 l 857 1061 l 769 1061 l 365 -28 l 344 -28 l 120 587 l 46 560 l 36 594 l 191 648 l 380 133 l 740 1102 l 857 1102 "},"S":{"x_min":16,"x_max":674,"ha":715,"o":"m 20 310 l 104 310 q 102 283 103 296 q 102 254 102 270 q 151 111 102 163 q 287 59 201 59 q 442 124 384 59 q 500 302 500 190 q 350 486 500 412 q 297 513 316 503 q 174 616 210 560 q 138 757 138 671 q 217 969 138 882 q 414 1057 297 1057 q 605 992 537 1057 q 674 811 674 928 q 673 792 674 799 q 672 780 673 785 l 589 780 q 590 791 589 784 q 591 803 591 799 q 544 929 591 883 q 419 976 498 976 q 281 912 336 976 q 227 751 227 849 q 389 567 227 647 q 428 548 414 555 q 549 448 510 507 q 589 308 589 389 q 506 70 589 160 q 287 -20 423 -20 q 88 49 161 -20 q 16 237 16 118 q 17 267 16 248 q 20 310 18 285 "},"/":{"x_min":-36,"x_max":427,"ha":396,"o":"m 357 1055 l 427 1055 l 30 -129 l -36 -129 l 357 1055 "},"y":{"x_min":-136,"x_max":539,"ha":521,"o":"m -136 -258 l -120 -195 q -105 -195 -114 -195 q -77 -198 -83 -198 q 10 -162 -23 -198 q 94 -1 43 -127 l 67 762 l 145 762 l 168 153 l 452 762 l 539 762 l 193 19 l 187 5 q -67 -264 61 -264 q -120 -259 -82 -264 q -136 -258 -129 -259 "},"≈":{"x_min":121,"x_max":1038,"ha":1157,"o":"m 1038 328 q 900 253 966 278 q 775 229 835 229 q 575 276 703 229 q 383 324 446 324 q 267 300 327 324 q 121 215 207 276 l 121 278 q 257 352 192 328 q 383 377 322 377 q 583 330 455 377 q 775 283 712 283 q 891 307 831 283 q 1038 391 951 331 l 1038 328 m 1038 548 q 902 474 966 498 q 775 450 837 450 q 575 497 703 450 q 383 544 446 544 q 267 519 327 544 q 121 435 207 495 l 121 497 q 258 573 192 548 q 383 598 323 598 q 583 550 455 598 q 775 502 712 502 q 889 526 830 502 q 1038 611 949 550 l 1038 548 "},"g":{"x_min":-12,"x_max":599,"ha":633,"o":"m 515 762 l 599 762 l 444 38 q 350 -203 406 -142 q 187 -264 293 -264 q 42 -212 96 -264 q -12 -74 -12 -160 l -12 -68 l 65 -68 q 101 -160 68 -128 q 194 -193 134 -193 q 304 -141 267 -193 q 368 67 341 -90 q 293 3 334 24 q 207 -17 253 -17 q 70 44 116 -17 q 24 225 24 105 q 55 456 24 336 q 133 654 86 577 q 223 750 172 717 q 335 783 274 783 q 435 758 396 783 q 497 680 474 733 l 515 762 m 221 54 q 311 88 270 54 q 380 190 352 123 q 402 251 392 215 q 429 357 413 287 q 453 478 446 431 q 461 558 461 525 q 429 672 461 632 q 339 712 397 712 q 255 680 293 712 q 186 585 216 648 q 128 405 151 512 q 105 215 105 299 q 134 95 105 136 q 221 54 163 54 "},"²":{"x_min":-24,"x_max":405,"ha":428,"o":"m 316 451 l 305 404 l -24 404 q 2 491 -13 453 q 45 559 19 528 q 179 662 77 596 q 199 674 192 670 q 314 773 280 726 q 348 876 348 819 q 322 949 348 921 q 256 978 297 978 q 176 943 207 978 q 138 847 144 909 l 82 847 q 138 977 94 931 q 254 1023 183 1023 q 363 981 321 1023 q 405 874 405 940 q 370 758 405 809 q 247 647 335 706 q 208 624 234 639 q 41 451 74 541 l 316 451 "},"ë":{"x_min":24,"x_max":516,"ha":591,"o":"m 135 458 l 425 458 q 430 517 428 494 q 432 555 432 539 q 399 671 432 630 q 310 713 367 713 q 206 652 247 713 q 135 458 164 591 m 494 389 l 120 388 q 105 274 108 309 q 102 214 102 239 q 133 92 102 135 q 223 49 165 49 q 317 96 278 49 q 381 243 356 143 l 459 243 q 368 46 430 114 q 218 -21 306 -21 q 74 42 124 -21 q 24 222 24 105 q 50 443 24 322 q 112 638 76 564 q 197 745 146 709 q 314 782 248 782 q 458 721 407 782 q 509 548 509 660 q 505 486 509 523 q 494 389 502 449 m 405 873 l 426 976 l 516 976 l 494 873 l 405 873 m 200 873 l 222 976 l 311 976 l 289 873 l 200 873 "},"–":{"x_min":-1.359375,"x_max":694,"ha":694,"o":"m -1 353 l 15 407 l 694 407 l 678 353 l -1 353 "},"ƒ":{"x_min":4,"x_max":583,"ha":648,"o":"m 4 -252 l 18 -176 q 45 -182 33 -180 q 65 -185 57 -185 q 138 -146 113 -185 q 185 23 163 -107 l 279 580 l 120 580 l 120 644 l 290 644 l 319 818 q 384 980 337 926 q 505 1034 431 1034 q 540 1030 521 1034 q 583 1018 559 1026 l 571 943 q 538 956 553 952 q 508 960 524 960 q 442 926 465 960 q 404 803 418 892 l 376 644 l 531 644 l 531 580 l 365 580 l 266 -16 q 200 -207 244 -149 q 77 -266 155 -266 q 45 -262 62 -266 q 4 -252 27 -259 "},"J":{"x_min":-37,"x_max":567,"ha":562,"o":"m -16 305 l 66 305 q 52 232 57 262 q 48 179 48 201 q 78 90 48 121 q 165 60 108 60 q 255 100 224 60 q 314 268 287 141 l 478 1035 l 567 1035 l 409 301 q 314 37 365 95 q 163 -21 262 -21 q 16 30 70 -21 q -37 171 -37 82 q -31 234 -37 201 q -16 305 -26 266 "},"Ã":{"x_min":-115,"x_max":616,"ha":632,"o":"m 162 392 l 419 392 l 396 898 l 162 392 m 472 1035 l 528 0 l 439 0 l 422 313 l 126 313 l -20 0 l -115 0 l 375 1035 l 472 1035 m 616 1277 q 571 1184 600 1216 q 503 1153 543 1153 q 478 1155 491 1153 q 453 1163 465 1158 l 418 1176 q 401 1182 409 1180 q 386 1185 392 1185 q 352 1173 366 1185 q 332 1139 339 1162 l 281 1139 q 323 1231 295 1199 q 390 1264 352 1264 q 414 1261 403 1264 q 439 1255 426 1259 l 474 1242 q 494 1236 484 1238 q 514 1235 504 1235 q 546 1245 533 1235 q 565 1277 559 1255 l 616 1277 "},"©":{"x_min":83,"x_max":1073,"ha":1157,"o":"m 733 622 q 678 708 719 677 q 578 739 638 739 q 445 672 493 739 q 398 487 398 606 q 446 306 398 372 q 578 240 495 240 q 684 275 640 240 q 742 370 729 311 l 811 370 q 737 234 803 287 q 574 182 671 182 q 388 265 457 182 q 319 491 319 349 q 391 713 319 630 q 582 797 464 797 q 733 748 672 797 q 804 622 795 699 l 733 622 m 1024 488 q 990 658 1024 578 q 895 802 957 739 q 749 900 830 867 q 577 934 668 934 q 406 900 487 934 q 264 805 326 867 q 166 657 200 739 q 132 488 132 576 q 165 319 132 400 q 263 174 199 238 q 408 77 327 111 q 577 43 489 43 q 747 77 665 43 q 895 176 830 112 q 991 318 958 238 q 1024 488 1024 397 m 577 984 q 768 946 678 984 q 929 838 859 909 q 1036 678 999 769 q 1073 488 1073 588 q 1036 298 1073 386 q 929 141 1000 210 q 766 31 857 69 q 577 -7 674 -7 q 389 30 479 -7 q 228 140 299 68 q 120 300 157 210 q 83 488 83 389 q 120 677 83 586 q 230 840 158 768 q 387 947 298 910 q 577 984 476 984 "},"˘":{"x_min":288,"x_max":611,"ha":694,"o":"m 288 1019 l 335 1019 q 358 949 335 972 q 427 927 381 927 q 508 950 474 927 q 561 1019 542 974 l 611 1019 q 541 894 589 936 q 421 852 493 852 q 322 891 356 852 q 288 1005 288 930 l 288 1019 "},"≥":{"x_min":179,"x_max":978,"ha":1157,"o":"m 978 87 l 978 33 l 179 33 l 179 87 l 978 87 m 978 520 l 978 472 l 179 198 l 179 257 l 886 496 l 179 734 l 179 794 l 978 520 "},"D":{"x_min":-10,"x_max":710,"ha":766,"o":"m 95 81 l 170 81 q 366 100 309 81 q 468 168 424 120 q 526 254 501 203 q 569 373 552 306 q 606 554 593 469 q 620 698 620 638 q 560 894 620 834 q 363 954 501 954 l 281 954 l 95 81 m -10 0 l 209 1035 l 354 1035 q 521 1017 466 1035 q 619 957 575 999 q 686 848 663 913 q 710 702 710 784 q 698 564 710 643 q 665 393 686 484 q 612 235 643 303 q 544 123 582 167 q 408 28 485 56 q 156 0 331 0 l -10 0 "},"ÿ":{"x_min":-136,"x_max":539,"ha":521,"o":"m -136 -258 l -120 -195 q -105 -195 -114 -195 q -77 -198 -83 -198 q 10 -162 -23 -198 q 94 -1 43 -127 l 67 762 l 145 762 l 168 153 l 452 762 l 539 762 l 193 19 l 187 5 q -67 -264 61 -264 q -120 -259 -82 -264 q -136 -258 -129 -259 m 393 873 l 414 976 l 504 976 l 482 873 l 393 873 m 188 873 l 210 976 l 299 976 l 277 873 l 188 873 "},"ł":{"x_min":-36,"x_max":302,"ha":268,"o":"m -18 0 l 80 469 l -36 401 l -21 472 l 95 540 l 201 1035 l 283 1035 l 186 580 l 302 648 l 287 577 l 172 510 l 63 0 l -18 0 "},"Ł":{"x_min":-18,"x_max":471,"ha":553,"o":"m 0 0 l 91 433 l -18 369 l 0 457 l 109 521 l 221 1035 l 310 1035 l 207 558 l 379 657 l 361 569 l 189 470 l 107 81 l 471 81 l 453 0 l 0 0 "},"$":{"x_min":3,"x_max":607.03125,"ha":648,"o":"m 298 598 l 372 950 q 247 903 294 950 q 201 779 201 856 q 223 682 201 723 q 298 598 245 641 m 248 77 l 263 77 q 397 134 345 77 q 450 283 450 192 q 421 388 450 342 q 331 477 393 435 l 248 77 m 210 -99 l 151 -99 l 177 18 q 45 114 88 47 q 3 292 3 181 q 3 309 3 298 q 4 326 4 320 l 88 326 l 88 300 q 112 161 88 212 q 191 89 137 111 l 281 513 q 157 637 194 576 q 120 772 120 697 q 190 949 120 880 q 373 1019 260 1019 l 385 1019 l 404 1105 l 463 1105 l 443 1014 q 566 931 526 986 q 607 789 607 875 q 606 766 607 774 q 605 751 606 758 l 528 751 l 528 759 q 505 880 528 839 q 429 938 482 921 l 350 565 q 488 431 443 500 q 533 286 533 363 q 454 79 533 159 q 250 0 376 0 q 243 0 248 0 q 235 1 238 1 l 232 1 l 210 -99 "},"w":{"x_min":68,"x_max":792,"ha":779,"o":"m 78 0 l 68 762 l 143 762 l 151 152 l 387 762 l 468 762 l 471 152 l 711 762 l 792 762 l 485 0 l 399 0 l 393 587 l 164 0 l 78 0 "},"\\":{"x_min":90,"x_max":308,"ha":396,"o":"m 153 1055 l 308 -129 l 242 -129 l 90 1055 l 153 1055 "},"∫":{"x_min":31,"x_max":612,"ha":643,"o":"m 272 391 q 330 888 272 729 q 512 1048 389 1048 q 584 1024 556 1048 q 612 963 612 1000 q 593 914 612 932 q 542 897 574 897 q 474 940 490 897 q 451 984 457 984 q 388 876 406 984 q 371 410 371 768 q 313 -93 371 65 q 131 -252 255 -252 q 59 -228 87 -252 q 31 -171 31 -205 q 50 -118 31 -138 q 102 -99 69 -99 q 139 -108 124 -99 q 167 -137 155 -117 q 175 -167 172 -146 q 192 -188 178 -188 q 254 -76 236 -188 q 272 391 272 35 "},"Ì":{"x_min":-5,"x_max":357,"ha":298,"o":"m -5 0 l 215 1035 l 305 1035 l 83 0 l -5 0 m 357 1119 l 300 1119 l 121 1303 l 226 1303 l 357 1119 "},"Ç":{"x_min":49,"x_max":722,"ha":747,"o":"m 639 329 q 516 67 601 156 q 302 -21 431 -21 q 114 54 179 -21 q 49 273 49 130 q 58 402 49 328 q 87 563 68 476 q 131 725 107 652 q 180 850 154 799 q 302 1007 232 957 q 469 1057 372 1057 q 657 982 593 1057 q 722 767 722 908 q 721 741 722 750 q 720 725 721 732 l 633 725 q 634 739 634 731 q 635 763 635 748 q 590 924 635 870 q 460 978 546 978 q 342 937 390 978 q 254 805 294 897 q 214 693 234 758 q 176 548 194 627 q 147 390 156 460 q 138 270 138 321 q 180 113 138 165 q 307 61 222 61 q 456 126 396 61 q 553 329 515 191 l 639 329 m 149 -239 q 161 -241 153 -239 q 248 -254 225 -254 q 312 -235 290 -254 q 335 -182 335 -217 q 309 -139 335 -152 q 222 -126 284 -126 l 198 -126 l 239 0 l 290 0 l 265 -72 l 276 -72 q 389 -100 353 -72 q 425 -187 425 -128 q 380 -282 425 -246 q 262 -318 336 -318 q 201 -313 234 -318 q 128 -298 168 -308 l 149 -239 "},"C":{"x_min":49,"x_max":722,"ha":747,"o":"m 639 329 q 516 67 601 156 q 302 -21 431 -21 q 114 54 179 -21 q 49 273 49 130 q 58 402 49 328 q 87 563 68 476 q 131 725 107 652 q 180 850 154 799 q 302 1007 232 957 q 469 1057 372 1057 q 657 982 593 1057 q 722 767 722 908 q 721 741 722 750 q 720 725 721 732 l 633 725 q 634 739 634 731 q 635 763 635 748 q 590 924 635 870 q 460 978 546 978 q 342 937 390 978 q 254 805 294 897 q 214 693 234 758 q 176 548 194 627 q 147 390 156 460 q 138 270 138 321 q 180 113 138 165 q 307 61 222 61 q 456 126 396 61 q 553 329 515 191 l 639 329 "},"!":{"x_min":20,"x_max":327,"ha":321,"o":"m 86 251 l 241 1035 l 327 1035 l 141 251 l 86 251 m 20 0 l 46 125 l 147 125 l 120 0 l 20 0 "},"ç":{"x_min":22,"x_max":501,"ha":570,"o":"m 501 539 l 430 539 l 430 544 q 397 669 430 625 q 306 713 365 713 q 232 685 265 713 q 174 603 198 657 q 120 418 142 530 q 98 214 98 305 q 129 91 98 134 q 220 48 161 48 q 318 98 277 48 q 377 239 360 148 l 451 239 q 366 46 427 114 q 215 -22 305 -22 q 72 41 122 -22 q 22 221 22 104 q 47 442 22 322 q 110 638 73 562 q 195 746 144 710 q 311 782 245 782 q 452 722 403 782 q 501 552 501 663 l 501 539 m 86 -239 q 98 -241 90 -239 q 185 -254 162 -254 q 249 -235 227 -254 q 272 -182 272 -217 q 246 -139 272 -152 q 159 -126 221 -126 l 135 -126 l 176 0 l 227 0 l 202 -72 l 213 -72 q 326 -100 290 -72 q 362 -187 362 -128 q 317 -282 362 -246 q 199 -318 273 -318 q 138 -313 171 -318 q 65 -298 105 -308 l 86 -239 "},"È":{"x_min":-11,"x_max":658,"ha":625,"o":"m -11 0 l 208 1035 l 658 1035 l 641 958 l 281 958 l 201 582 l 552 582 l 533 501 l 184 501 l 95 81 l 480 81 l 463 0 l -11 0 m 525 1119 l 468 1119 l 289 1303 l 394 1303 l 525 1119 "},"X":{"x_min":-100,"x_max":704,"ha":621,"o":"m -100 0 l 257 529 l 96 1035 l 187 1035 l 322 607 l 604 1035 l 704 1035 l 362 518 l 533 0 l 441 0 l 297 441 l 0 0 l -100 0 "},"ô":{"x_min":21,"x_max":543,"ha":624,"o":"m 21 223 q 49 444 21 324 q 116 638 77 565 q 208 746 155 710 q 331 782 262 782 q 488 719 433 782 q 543 539 543 656 q 515 317 543 436 q 446 123 487 199 q 354 15 408 51 q 230 -20 300 -20 q 74 42 127 -20 q 21 223 21 104 m 327 713 q 247 685 282 713 q 185 603 212 658 q 128 420 152 533 q 104 214 104 307 q 137 92 104 134 q 234 50 171 50 q 315 77 279 50 q 377 157 351 104 q 435 344 411 230 q 460 547 460 459 q 426 670 460 628 q 327 713 392 713 m 522 844 l 470 844 l 381 958 l 245 844 l 187 844 l 341 1028 l 433 1028 l 522 844 "},"đ":{"x_min":24,"x_max":725.171875,"ha":633,"o":"m 221 54 q 311 88 270 54 q 380 190 352 123 q 402 251 392 215 q 429 357 413 287 q 454 478 446 431 q 461 558 461 525 q 429 672 461 632 q 339 712 397 712 q 255 680 293 712 q 186 585 216 648 q 128 405 151 512 q 105 215 105 299 q 134 95 105 136 q 221 54 163 54 m 656 1035 l 630 916 l 725 916 l 712 860 l 618 860 l 437 0 l 354 0 l 368 67 q 294 3 334 24 q 207 -17 253 -17 q 70 44 116 -17 q 24 225 24 105 q 55 456 24 336 q 133 654 86 577 q 223 750 172 717 q 335 783 274 783 q 435 757 395 783 q 497 680 475 732 l 534 860 l 378 860 l 388 916 l 547 916 l 572 1035 l 656 1035 "},"}":{"x_min":120,"x_max":574,"ha":694,"o":"m 369 746 l 369 583 q 408 432 369 476 q 543 388 447 388 q 558 389 548 388 q 574 390 567 390 l 574 330 q 558 330 567 330 q 543 331 548 331 q 408 287 447 331 q 369 137 369 244 l 369 -25 q 322 -229 369 -178 q 149 -280 276 -280 l 120 -280 l 120 -220 l 146 -220 q 268 -185 237 -220 q 300 -42 300 -151 l 300 121 q 329 288 300 239 q 432 360 358 338 q 329 431 358 381 q 300 598 300 480 l 300 762 q 268 907 300 872 q 145 942 236 942 l 120 942 l 120 1002 l 149 1002 q 322 951 276 1002 q 369 746 369 900 "},"â":{"x_min":-14,"x_max":505,"ha":567,"o":"m 169 576 l 87 576 q 167 727 108 675 q 320 779 226 779 q 444 739 394 779 q 494 641 494 699 q 489 588 494 618 q 475 512 485 557 l 398 143 q 395 126 396 135 q 394 106 394 118 q 408 69 394 83 q 445 56 421 56 q 456 56 452 56 q 463 57 460 56 l 450 -5 q 422 -9 435 -8 q 398 -10 409 -10 q 341 5 362 -10 q 314 56 321 22 q 238 0 276 18 q 155 -17 199 -17 q 32 32 79 -17 q -14 162 -14 82 q 36 318 -14 260 q 247 429 87 376 q 382 502 353 464 q 411 608 411 539 q 384 683 411 657 q 307 710 357 710 q 220 679 252 710 q 169 576 188 648 m 370 393 l 364 392 q 67 171 67 301 q 95 87 67 118 q 173 56 124 56 q 295 134 249 56 q 370 393 342 213 m 505 844 l 453 844 l 364 958 l 228 844 l 170 844 l 324 1028 l 416 1028 l 505 844 "},"ø":{"x_min":-38.65625,"x_max":585.71875,"ha":624,"o":"m 537 833 l 585 802 l 511 686 q 535 622 527 657 q 543 538 543 587 q 515 318 543 437 q 446 122 487 199 q 353 14 410 51 q 224 -22 297 -22 q 149 -9 182 -22 q 85 29 116 2 l 8 -91 l -38 -59 l 50 78 q 27 150 34 116 q 21 221 21 185 q 49 442 21 320 q 116 637 77 564 q 208 746 155 711 q 335 781 261 781 q 413 769 379 781 q 473 734 447 758 l 537 833 m 455 601 l 131 100 q 177 62 151 74 q 238 51 203 51 q 316 77 282 51 q 377 158 351 103 q 404 231 391 187 q 434 353 417 275 q 454 455 448 414 q 460 523 460 495 q 458 555 460 535 q 455 601 457 574 m 105 166 l 429 665 q 387 701 412 689 q 327 713 362 713 q 239 679 277 713 q 174 575 202 645 q 122 394 141 490 q 104 211 104 299 q 104 183 104 192 q 105 166 104 173 "},"Ä":{"x_min":-115,"x_max":606,"ha":632,"o":"m 162 392 l 419 392 l 396 898 l 162 392 m 472 1035 l 528 0 l 439 0 l 422 313 l 126 313 l -20 0 l -115 0 l 375 1035 l 472 1035 m 495 1148 l 516 1251 l 606 1251 l 584 1148 l 495 1148 m 290 1148 l 312 1251 l 401 1251 l 379 1148 l 290 1148 "},"‰":{"x_min":68,"x_max":1294,"ha":1362,"o":"m 1112 440 q 1034 392 1060 440 q 1008 250 1008 345 q 1033 107 1008 154 q 1112 61 1059 61 q 1192 108 1165 61 q 1219 250 1219 155 q 1192 392 1219 345 q 1112 440 1165 440 m 1113 501 q 1246 434 1198 501 q 1294 250 1294 368 q 1246 65 1294 131 q 1113 0 1198 0 q 980 65 1028 0 q 933 250 933 131 q 980 434 933 368 q 1113 501 1028 501 m 680 440 q 601 392 627 440 q 575 250 575 345 q 600 107 575 154 q 680 61 626 61 q 759 108 732 61 q 786 250 786 155 q 759 392 786 345 q 680 440 732 440 m 680 501 q 813 434 765 501 q 861 250 861 368 q 813 65 861 131 q 680 0 765 0 q 547 65 595 0 q 500 250 500 131 q 547 434 500 368 q 680 501 595 501 m 249 974 q 169 926 196 974 q 143 784 143 878 q 169 641 143 688 q 249 595 196 595 q 328 641 302 595 q 354 784 354 688 q 328 927 354 880 q 249 974 302 974 m 68 784 q 115 969 68 903 q 248 1035 163 1035 q 381 969 334 1035 q 429 784 429 903 q 381 600 429 666 q 248 534 334 534 q 115 600 163 534 q 68 784 68 666 m 221 -19 l 644 1055 l 707 1055 l 286 -19 l 221 -19 "},"N":{"x_min":-11,"x_max":793,"ha":783,"o":"m -11 0 l 208 1035 l 318 1035 l 515 147 l 704 1035 l 793 1035 l 572 0 l 469 0 l 269 904 l 78 0 l -11 0 "},"—":{"x_min":-8,"x_max":1397,"ha":1389,"o":"m -8 353 l 8 407 l 1397 407 l 1380 353 l -8 353 "},"2":{"x_min":-35,"x_max":613,"ha":648,"o":"m 480 78 l 463 0 l -35 0 q 4 145 -20 83 q 68 258 30 208 q 263 422 116 319 q 301 451 289 441 q 476 615 425 538 q 527 785 527 692 q 488 908 527 861 q 388 955 450 955 q 266 898 313 955 q 208 737 219 841 l 123 737 q 209 956 141 880 q 385 1032 277 1032 q 549 963 486 1032 q 613 784 613 894 q 559 588 613 674 q 373 406 505 502 q 313 365 353 392 q 61 78 112 229 l 480 78 "},"ü":{"x_min":1,"x_max":562,"ha":612,"o":"m 562 762 l 399 0 l 324 0 l 339 74 q 255 2 302 26 q 150 -21 207 -21 q 41 16 82 -21 q 1 116 1 53 q 3 153 1 133 q 11 199 6 173 l 131 762 l 211 762 l 90 194 q 85 163 87 179 q 84 134 84 147 q 107 69 84 92 q 172 47 130 47 q 302 106 246 47 q 381 268 359 166 l 485 762 l 562 762 m 429 873 l 450 976 l 540 976 l 518 873 l 429 873 m 224 873 l 246 976 l 335 976 l 313 873 l 224 873 "},"":{"x_min":-4,"x_max":615,"ha":596,"o":"m 313 0 l 532 1035 l 615 1035 l 395 0 l 313 0 m -4 0 l 143 697 l 69 697 l 83 762 l 157 762 l 183 880 q 238 1003 202 969 q 345 1038 273 1038 q 383 1035 357 1038 q 389 1035 387 1035 l 376 967 q 362 968 368 968 q 348 970 355 969 q 293 950 310 970 q 265 873 277 931 l 241 762 l 333 762 l 318 697 l 227 697 l 79 0 l -4 0 "},"Ó":{"x_min":47,"x_max":722,"ha":774,"o":"m 462 978 q 346 939 395 978 q 259 819 297 901 q 215 702 236 770 q 175 548 194 634 q 146 391 156 461 q 137 271 137 321 q 179 110 137 164 q 306 57 221 57 q 424 95 374 57 q 512 216 474 134 q 557 336 535 265 q 597 493 579 406 q 625 649 615 579 q 635 769 635 720 q 590 924 635 871 q 462 978 546 978 m 47 272 q 57 401 47 326 q 87 565 67 476 q 129 724 105 649 q 179 850 154 798 q 301 1007 232 957 q 467 1057 371 1057 q 657 981 593 1057 q 722 758 722 905 q 712 631 722 701 q 686 478 703 560 q 640 309 665 384 q 591 183 616 234 q 469 27 539 77 q 302 -22 399 -22 q 112 53 177 -22 q 47 272 47 128 m 494 1119 l 439 1119 l 565 1303 l 666 1303 l 494 1119 "},"˜":{"x_min":265,"x_max":600,"ha":694,"o":"m 600 1002 q 555 909 584 941 q 487 878 527 878 q 462 880 475 878 q 437 888 449 883 l 402 901 q 385 907 393 905 q 370 910 376 910 q 336 898 350 910 q 316 864 323 887 l 265 864 q 307 956 279 924 q 374 989 336 989 q 398 986 387 989 q 423 980 410 984 l 458 967 q 478 961 468 963 q 498 960 488 960 q 530 970 517 960 q 549 1002 543 980 l 600 1002 "},"ˇ":{"x_min":282,"x_max":616,"ha":694,"o":"m 282 1028 l 333 1028 l 422 913 l 557 1028 l 616 1028 l 462 844 l 372 844 l 282 1028 "},"Ÿ":{"x_min":71,"x_max":689,"ha":562,"o":"m 123 0 l 221 458 l 71 1035 l 158 1035 l 283 554 l 591 1035 l 689 1035 l 307 444 l 212 0 l 123 0 m 465 1148 l 486 1251 l 576 1251 l 554 1148 l 465 1148 m 260 1148 l 282 1251 l 371 1251 l 349 1148 l 260 1148 "},"€":{"x_min":-10,"x_max":657,"ha":648,"o":"m 30 574 l 56 632 l 146 632 q 178 736 161 688 q 213 826 194 783 q 320 982 260 933 q 463 1032 380 1032 q 607 964 557 1032 q 657 772 657 897 q 655 736 657 754 q 652 700 654 718 l 571 700 q 574 734 573 715 q 576 772 576 752 q 544 910 576 863 q 452 957 513 957 q 360 915 400 957 q 284 780 320 873 q 257 705 268 740 q 235 632 245 670 l 549 632 l 523 574 l 220 574 q 197 465 211 538 l 194 448 l 466 447 l 439 389 l 183 389 q 182 375 183 384 q 173 251 173 295 q 203 103 173 152 q 293 54 233 54 q 411 120 362 54 q 493 327 459 186 l 574 327 q 465 66 537 154 q 288 -21 392 -21 q 140 50 193 -21 q 87 250 87 121 l 87 273 q 91 333 88 305 q 97 389 93 361 l -10 389 l 16 448 l 106 448 q 128 556 112 480 q 132 574 131 568 l 30 574 "},"ß":{"x_min":-21,"x_max":579,"ha":631,"o":"m -21 0 l 136 746 q 225 971 169 904 q 376 1039 281 1039 q 523 984 467 1039 q 579 839 579 929 q 539 651 579 722 q 425 567 499 581 q 491 492 472 534 q 511 381 511 451 q 446 89 511 202 q 279 -24 381 -24 q 227 -15 254 -24 q 167 10 201 -6 l 180 74 q 229 52 207 59 q 271 46 252 46 q 341 72 314 46 q 389 161 369 98 q 422 286 411 226 q 434 400 434 346 q 403 507 434 472 q 296 557 372 542 l 308 611 q 312 611 309 611 q 342 609 333 609 q 460 667 419 609 q 502 834 502 726 q 468 937 502 900 q 375 975 434 975 q 278 921 314 975 q 210 719 241 867 l 59 0 l -21 0 "},"s":{"x_min":-8,"x_max":475,"ha":539,"o":"m -8 204 l 71 204 l 71 189 q 103 85 71 121 q 197 50 136 50 q 301 94 260 50 q 342 206 342 138 q 317 286 342 255 q 221 355 292 318 q 95 450 124 405 q 67 562 67 494 q 128 719 67 657 q 283 781 189 781 q 423 726 371 781 q 475 579 475 671 l 475 577 l 398 577 q 362 675 394 638 q 278 712 329 712 q 182 670 218 712 q 146 561 146 628 q 170 487 146 518 q 266 421 195 457 q 391 329 358 374 q 424 214 424 284 q 359 46 424 113 q 198 -20 295 -20 q 48 36 104 -20 q -8 185 -8 92 l -8 204 "},"?":{"x_min":128,"x_max":595,"ha":627,"o":"m 203 245 q 258 417 230 363 q 335 522 285 471 q 372 561 348 536 q 509 820 509 699 q 471 935 509 892 q 374 979 434 979 q 256 925 297 979 q 209 766 215 872 l 128 766 q 192 977 129 900 q 365 1054 255 1054 q 533 993 471 1054 q 595 828 595 933 q 563 674 595 742 q 457 533 532 607 q 427 504 448 522 q 281 245 307 393 l 203 245 m 152 0 l 177 119 l 274 119 l 249 0 l 152 0 "},"c":{"x_min":22,"x_max":501,"ha":570,"o":"m 501 539 l 430 539 l 430 544 q 397 669 430 625 q 306 713 365 713 q 232 685 265 713 q 174 603 198 657 q 120 418 142 530 q 98 214 98 305 q 129 91 98 134 q 220 48 161 48 q 318 98 277 48 q 377 239 360 148 l 451 239 q 366 46 427 114 q 215 -22 305 -22 q 72 41 122 -22 q 22 221 22 104 q 47 442 22 322 q 110 638 73 562 q 195 746 144 710 q 311 782 245 782 q 452 722 403 782 q 501 552 501 663 l 501 539 "},"¶":{"x_min":61,"x_max":631,"ha":694,"o":"m 631 960 l 544 960 l 544 0 l 497 0 l 497 960 l 367 960 l 367 0 l 320 0 l 320 530 q 131 599 201 535 q 61 766 61 663 q 134 937 61 872 q 329 1003 208 1003 l 631 1003 l 631 960 "},"•":{"x_min":208,"x_max":609,"ha":819,"o":"m 208 516 q 266 657 208 599 q 409 716 325 716 q 550 657 491 716 q 609 516 609 598 q 549 374 609 433 q 407 315 490 315 q 266 373 324 315 q 208 516 208 432 "},"(":{"x_min":62,"x_max":498,"ha":425,"o":"m 498 1035 q 230 606 317 819 q 143 169 143 393 q 164 -30 143 75 q 230 -264 185 -135 l 169 -264 q 88 -8 114 -129 q 62 230 62 112 q 149 629 62 434 q 426 1035 237 824 l 498 1035 "},"◊":{"x_min":4,"x_max":682,"ha":686,"o":"m 343 955 l 81 401 l 343 -158 l 604 401 l 343 955 m 343 1121 l 682 401 l 343 -324 l 4 401 l 343 1121 "},"­":{"x_min":49,"x_max":429,"ha":472,"o":"m 49 343 l 65 416 l 429 416 l 413 343 l 49 343 "},":":{"x_min":0,"x_max":261,"ha":325,"o":"m 133 596 l 160 721 l 261 721 l 234 596 l 133 596 m 0 0 l 26 125 l 126 125 l 99 0 l 0 0 "},"Û":{"x_min":40,"x_max":785,"ha":768,"o":"m 202 1035 l 291 1035 l 143 340 q 132 280 136 309 q 129 228 129 252 q 175 102 129 145 q 312 59 221 59 q 462 115 411 59 q 551 351 512 171 l 696 1035 l 785 1035 l 636 332 q 520 49 591 120 q 307 -22 449 -22 q 110 41 181 -22 q 40 218 40 104 q 64 387 40 268 l 66 397 l 202 1035 m 665 1119 l 613 1119 l 524 1233 l 388 1119 l 330 1119 l 484 1303 l 576 1303 l 665 1119 "},"V":{"x_min":106,"x_max":736,"ha":625,"o":"m 148 0 l 106 1035 l 196 1035 l 225 145 l 641 1035 l 736 1035 l 245 0 l 148 0 "}," ":{"x_min":0,"x_max":0,"ha":648},"@":{"x_min":82,"x_max":1307,"ha":1389,"o":"m 884 560 l 925 647 l 979 647 l 886 272 q 876 228 879 247 q 872 198 872 209 q 893 152 872 168 q 951 136 913 136 q 1019 149 984 136 q 1089 187 1055 162 q 1199 328 1158 238 q 1241 519 1241 418 q 1105 818 1241 705 q 749 931 970 931 q 538 898 635 931 q 363 800 441 865 q 205 599 258 714 q 153 345 153 484 q 303 -8 153 123 q 704 -141 453 -141 q 924 -106 813 -141 q 1126 -9 1034 -72 l 1146 -40 q 937 -152 1047 -115 q 706 -190 827 -190 q 474 -158 580 -190 q 286 -64 368 -126 q 132 116 183 13 q 82 353 82 220 q 116 561 82 463 q 216 741 150 660 q 450 921 313 860 q 755 983 587 983 q 962 953 864 983 q 1130 868 1060 923 q 1262 715 1217 802 q 1307 526 1307 628 q 1264 317 1307 412 q 1141 160 1221 223 q 1042 104 1096 123 q 934 85 989 85 q 837 109 870 85 q 804 183 804 134 q 806 206 804 191 q 807 209 807 208 q 722 117 774 150 q 609 85 670 85 q 451 141 505 85 q 397 306 397 197 q 488 568 397 461 q 710 676 579 676 q 818 646 774 676 q 884 560 862 617 m 827 315 l 869 488 q 814 590 854 555 q 711 626 774 626 q 538 532 608 626 q 468 301 468 438 q 507 179 468 223 q 615 135 546 135 q 748 184 690 135 q 827 315 805 233 "},"¾":{"x_min":12,"x_max":1020,"ha":1048,"o":"m 875 197 l 954 503 l 705 197 l 875 197 m 828 0 l 865 158 l 642 158 l 653 202 l 968 582 l 1020 582 l 927 197 l 990 197 l 982 158 l 919 158 l 879 0 l 828 0 m 802 1032 l 870 1032 l 245 -26 l 176 -26 l 802 1032 m 15 612 l 69 612 q 68 594 68 602 q 68 574 68 585 q 92 500 68 527 q 159 473 117 473 q 243 516 209 473 q 278 622 278 559 q 243 699 278 674 q 133 726 208 723 l 141 763 l 159 763 q 287 795 243 763 q 331 888 331 827 q 307 956 331 930 q 245 982 283 982 q 186 958 211 982 q 147 888 161 934 l 95 888 q 148 986 107 950 q 251 1022 190 1022 q 347 986 310 1022 q 384 892 384 950 q 350 791 384 830 q 253 738 317 752 q 314 690 294 719 q 334 618 334 661 q 283 485 334 537 q 157 433 233 433 q 52 469 92 433 q 12 569 12 506 q 13 592 12 573 q 15 612 14 605 "},"i":{"x_min":-21,"x_max":281,"ha":261,"o":"m 154 904 l 181 1035 l 281 1035 l 253 904 l 154 904 m -21 0 l 140 762 l 222 762 l 61 0 l -21 0 "},"≤":{"x_min":179,"x_max":978,"ha":1157,"o":"m 978 87 l 978 33 l 179 33 l 179 87 l 978 87 m 978 734 l 270 496 l 978 257 l 978 198 l 179 472 l 179 520 l 978 794 l 978 734 "},"m":{"x_min":-21,"x_max":893,"ha":962,"o":"m -21 0 l 140 762 l 218 762 l 201 681 q 290 753 242 729 q 393 777 337 777 q 488 752 449 777 q 546 677 526 727 q 639 753 592 729 q 743 777 687 777 q 852 739 811 777 q 893 639 893 702 q 890 597 893 618 q 884 556 888 577 l 766 0 l 683 0 l 803 560 q 808 591 806 575 q 810 618 810 606 q 786 685 810 662 q 721 709 763 709 q 592 650 646 709 q 515 486 537 592 l 411 0 l 335 0 l 453 560 q 458 591 456 575 q 459 618 459 606 q 436 685 459 662 q 371 709 413 709 q 242 650 296 709 q 165 486 187 592 l 61 0 l -21 0 "},"ž":{"x_min":-78,"x_max":498,"ha":457,"o":"m -78 0 l -62 71 l 355 691 l 62 691 l 78 762 l 463 762 l 449 682 l 27 71 l 344 71 l 330 0 l -78 0 m 164 1028 l 215 1028 l 304 913 l 439 1028 l 498 1028 l 344 844 l 254 844 l 164 1028 "},"á":{"x_min":-14,"x_max":503,"ha":567,"o":"m 169 576 l 87 576 q 167 727 108 675 q 320 779 226 779 q 444 739 394 779 q 494 641 494 699 q 489 588 494 618 q 475 512 485 557 l 398 143 q 395 126 396 135 q 394 106 394 118 q 408 69 394 83 q 445 56 421 56 q 456 56 452 56 q 463 57 460 56 l 450 -5 q 422 -9 435 -8 q 398 -10 409 -10 q 341 5 362 -10 q 314 56 321 22 q 238 0 276 18 q 155 -17 199 -17 q 32 32 79 -17 q -14 162 -14 82 q 36 318 -14 260 q 247 429 87 376 q 382 502 353 464 q 411 608 411 539 q 384 683 411 657 q 307 710 357 710 q 220 679 252 710 q 169 576 188 648 m 370 393 l 364 392 q 67 171 67 301 q 95 87 67 118 q 173 56 124 56 q 295 134 249 56 q 370 393 342 213 m 331 844 l 276 844 l 402 1028 l 503 1028 l 331 844 "},"×":{"x_min":210,"x_max":949,"ha":1157,"o":"m 579 453 l 909 784 l 949 745 l 618 414 l 949 83 l 909 45 l 579 375 l 249 45 l 210 83 l 540 414 l 210 745 l 249 784 l 579 453 "},"İ":{"x_min":-5,"x_max":351,"ha":298,"o":"m -5 0 l 215 1035 l 305 1035 l 83 0 l -5 0 m 220 1143 l 244 1260 l 351 1260 l 325 1143 l 220 1143 "},"K":{"x_min":-8,"x_max":737,"ha":647,"o":"m -8 0 l 212 1035 l 301 1035 l 197 545 l 629 1035 l 737 1035 l 362 611 l 553 0 l 461 0 l 292 544 l 166 406 l 82 0 l -8 0 "},"7":{"x_min":123,"x_max":670,"ha":648,"o":"m 123 0 q 267 497 162 265 q 549 938 372 728 l 148 938 l 165 1019 l 670 1019 l 653 938 q 359 491 470 726 q 210 0 249 256 l 123 0 "},"¨":{"x_min":274,"x_max":590,"ha":694,"o":"m 479 873 l 500 976 l 590 976 l 568 873 l 479 873 m 274 873 l 296 976 l 385 976 l 363 873 l 274 873 "},"Y":{"x_min":71,"x_max":689,"ha":562,"o":"m 123 0 l 221 458 l 71 1035 l 158 1035 l 283 554 l 591 1035 l 689 1035 l 307 444 l 212 0 l 123 0 "},"E":{"x_min":-11,"x_max":658,"ha":625,"o":"m -11 0 l 208 1035 l 658 1035 l 641 958 l 281 958 l 201 582 l 552 582 l 533 501 l 184 501 l 95 81 l 480 81 l 463 0 l -11 0 "},"Ô":{"x_min":47,"x_max":722,"ha":774,"o":"m 462 978 q 346 939 395 978 q 259 819 297 901 q 215 702 236 770 q 175 548 194 634 q 146 391 156 461 q 137 271 137 321 q 179 110 137 164 q 306 57 221 57 q 424 95 374 57 q 512 216 474 134 q 557 336 535 265 q 597 493 579 406 q 625 649 615 579 q 635 769 635 720 q 590 924 635 871 q 462 978 546 978 m 47 272 q 57 401 47 326 q 87 565 67 476 q 129 724 105 649 q 179 850 154 798 q 301 1007 232 957 q 467 1057 371 1057 q 657 981 593 1057 q 722 758 722 905 q 712 631 722 701 q 686 478 703 560 q 640 309 665 384 q 591 183 616 234 q 469 27 539 77 q 302 -22 399 -22 q 112 53 177 -22 q 47 272 47 128 m 668 1119 l 616 1119 l 527 1233 l 391 1119 l 333 1119 l 487 1303 l 579 1303 l 668 1119 "},"Ï":{"x_min":-5,"x_max":444,"ha":298,"o":"m -5 0 l 215 1035 l 305 1035 l 83 0 l -5 0 m 333 1148 l 354 1251 l 444 1251 l 422 1148 l 333 1148 m 128 1148 l 150 1251 l 239 1251 l 217 1148 l 128 1148 "},"‹":{"x_min":32,"x_max":288,"ha":359,"o":"m 204 180 l 32 327 l 51 420 l 288 573 l 271 489 l 98 367 l 221 257 l 204 180 "},"±":{"x_min":172,"x_max":984,"ha":1157,"o":"m 984 96 l 984 40 l 172 40 l 172 96 l 984 96 m 605 787 l 605 547 l 984 547 l 984 493 l 605 493 l 605 254 l 551 254 l 551 493 l 172 493 l 172 547 l 551 547 l 551 787 l 605 787 "},"ì":{"x_min":-21,"x_max":287,"ha":261,"o":"m -21 0 l 140 762 l 222 762 l 60 0 l -21 0 m 287 844 l 230 844 l 51 1028 l 156 1028 l 287 844 "},"|":{"x_min":317,"x_max":378,"ha":694,"o":"m 378 1061 l 378 -328 l 317 -328 l 317 1061 l 378 1061 "},"§":{"x_min":-11,"x_max":608.359375,"ha":650,"o":"m 352 173 q 452 240 420 202 q 485 327 485 277 q 306 592 485 412 q 243 657 266 634 q 142 585 172 621 q 113 501 113 549 q 312 214 113 412 q 352 173 338 187 m -11 25 l 69 25 q 68 13 68 19 q 68 -2 68 8 q 103 -115 68 -76 q 206 -155 139 -155 q 309 -114 268 -155 q 350 -13 350 -74 q 325 70 350 29 q 207 205 301 111 q 72 366 106 307 q 39 484 39 424 q 79 611 39 559 q 207 702 119 663 q 174 767 185 733 q 164 840 164 801 q 229 994 164 933 q 397 1055 294 1055 q 549 995 490 1055 q 608 841 608 935 q 608 837 608 840 q 607 811 607 822 l 528 811 l 528 830 q 492 944 528 904 q 389 984 456 984 q 286 943 327 984 q 245 842 245 903 q 270 756 245 799 q 389 620 296 713 q 524 462 490 520 q 558 344 558 404 q 517 217 558 269 q 387 126 476 165 q 421 59 410 93 q 433 -9 433 26 q 367 -165 433 -102 q 205 -228 302 -228 q 48 -167 108 -228 q -11 -10 -11 -107 l -11 6 l -11 25 "},"q":{"x_min":24,"x_max":599,"ha":633,"o":"m 221 51 q 311 86 269 51 q 380 188 352 121 q 402 250 392 214 q 429 356 413 286 q 453 477 446 430 q 461 558 461 525 q 429 672 461 632 q 339 712 397 712 q 255 679 293 712 q 186 583 216 647 q 128 403 151 510 q 105 213 105 296 q 134 92 105 133 q 221 51 163 51 m 599 762 l 379 -264 l 296 -264 l 368 64 q 293 0 334 21 q 207 -20 253 -20 q 70 41 116 -20 q 24 223 24 103 q 55 455 24 335 q 133 653 86 576 q 223 748 172 716 q 335 781 274 781 q 435 756 396 781 q 497 678 474 731 l 515 762 l 599 762 "},"b":{"x_min":-21,"x_max":554,"ha":633,"o":"m 356 708 q 267 672 308 708 q 197 571 225 637 q 175 509 185 545 q 148 402 164 472 q 123 282 130 328 q 116 202 116 236 q 148 89 116 129 q 238 49 180 49 q 323 80 284 49 q 391 176 361 112 q 448 355 425 249 q 472 545 472 461 q 443 667 472 626 q 356 708 414 708 m -21 0 l 200 1035 l 282 1035 l 209 694 q 284 758 244 737 q 370 779 324 779 q 507 717 461 779 q 554 536 554 655 q 523 304 554 424 q 444 108 492 184 q 354 11 405 44 q 242 -21 303 -21 q 141 4 181 -21 q 79 82 101 29 l 61 0 l -21 0 "},"®":{"x_min":83,"x_max":1073,"ha":1157,"o":"m 577 730 l 463 730 l 463 518 l 577 518 q 712 542 675 518 q 750 627 750 566 q 708 705 750 680 q 577 730 666 730 m 592 783 q 771 744 714 783 q 829 625 829 706 q 791 524 829 564 q 691 475 753 483 l 820 209 l 731 209 l 607 465 l 463 465 l 463 209 l 385 209 l 385 783 l 592 783 m 1024 488 q 990 658 1024 578 q 895 802 957 739 q 749 900 830 867 q 577 934 668 934 q 406 900 487 934 q 264 805 326 867 q 166 657 200 739 q 132 488 132 576 q 165 319 132 400 q 263 174 199 238 q 408 77 327 111 q 577 43 489 43 q 747 77 665 43 q 895 176 830 112 q 991 318 958 238 q 1024 488 1024 397 m 577 984 q 768 946 678 984 q 929 838 859 909 q 1036 678 999 769 q 1073 488 1073 588 q 1036 298 1073 386 q 929 141 1000 210 q 766 31 857 69 q 577 -7 674 -7 q 389 30 479 -7 q 228 140 299 68 q 120 300 157 210 q 83 488 83 389 q 120 677 83 586 q 230 840 158 768 q 387 947 298 910 q 577 984 476 984 "},"L":{"x_min":-5,"x_max":464,"ha":553,"o":"m -5 0 l 213 1035 l 302 1035 l 99 81 l 464 81 l 447 0 l -5 0 "}," ":{"x_min":0,"x_max":0,"ha":325},"∑":{"x_min":7,"x_max":850,"ha":875,"o":"m 30 999 l 850 999 l 850 916 l 146 916 l 635 382 l 119 -184 l 850 -184 l 850 -266 l 7 -266 l 7 -179 l 517 382 l 30 916 l 30 999 "},"À":{"x_min":-115,"x_max":528,"ha":632,"o":"m 162 392 l 419 392 l 396 898 l 162 392 m 472 1035 l 528 0 l 439 0 l 422 313 l 126 313 l -20 0 l -115 0 l 375 1035 l 472 1035 m 519 1119 l 462 1119 l 283 1303 l 388 1303 l 519 1119 "},"+":{"x_min":172,"x_max":984,"ha":1157,"o":"m 605 829 l 605 442 l 984 442 l 984 386 l 605 386 l 605 0 l 551 0 l 551 386 l 172 386 l 172 442 l 551 442 l 551 829 l 605 829 "},"½":{"x_min":97,"x_max":1026,"ha":1050,"o":"m 942 43 l 931 0 l 618 0 q 643 82 627 47 q 685 144 659 117 q 806 237 714 179 q 830 253 822 247 q 939 344 907 300 q 972 440 972 387 q 947 508 972 482 q 884 535 923 535 q 807 503 837 535 q 772 413 778 471 l 718 413 q 771 535 728 492 q 883 578 814 578 q 986 539 947 578 q 1026 439 1026 501 q 992 329 1026 377 q 874 228 959 282 q 835 203 861 219 q 678 43 710 128 l 942 43 m 802 1032 l 870 1032 l 245 -26 l 176 -26 l 802 1032 m 127 444 l 238 906 q 191 899 214 901 q 141 897 167 897 l 97 897 l 104 928 q 214 953 172 930 q 279 1026 256 977 l 322 1026 l 182 444 l 127 444 "},"Ë":{"x_min":-11,"x_max":658,"ha":625,"o":"m -11 0 l 208 1035 l 658 1035 l 641 958 l 281 958 l 201 582 l 552 582 l 533 501 l 184 501 l 95 81 l 480 81 l 463 0 l -11 0 m 501 1148 l 522 1251 l 612 1251 l 590 1148 l 501 1148 m 296 1148 l 318 1251 l 407 1251 l 385 1148 l 296 1148 "},"'":{"x_min":68,"x_max":126,"ha":193,"o":"m 126 973 l 126 598 l 68 598 l 68 973 l 126 973 "},"Š":{"x_min":16,"x_max":678,"ha":715,"o":"m 20 310 l 104 310 q 102 283 103 296 q 102 254 102 270 q 151 111 102 163 q 287 59 201 59 q 442 124 384 59 q 500 302 500 190 q 350 486 500 412 q 297 513 316 503 q 174 616 210 560 q 138 757 138 671 q 217 969 138 882 q 414 1057 297 1057 q 605 992 537 1057 q 674 811 674 928 q 673 792 674 799 q 672 780 673 785 l 589 780 q 590 791 589 784 q 591 803 591 799 q 544 929 591 883 q 419 976 498 976 q 281 912 336 976 q 227 751 227 849 q 389 567 227 647 q 428 548 414 555 q 549 448 510 507 q 589 308 589 389 q 506 70 589 160 q 287 -20 423 -20 q 88 49 161 -20 q 16 237 16 118 q 17 267 16 248 q 20 310 18 285 m 344 1303 l 395 1303 l 484 1188 l 619 1303 l 678 1303 l 524 1119 l 434 1119 l 344 1303 "},"˛":{"x_min":103,"x_max":302,"ha":694,"o":"m 279 0 q 208 -80 230 -44 q 186 -151 186 -116 q 200 -194 186 -181 q 251 -207 215 -207 l 302 -207 l 284 -294 l 252 -294 q 139 -266 175 -294 q 103 -182 103 -239 q 129 -99 103 -138 q 229 0 155 -59 l 279 0 "},"ð":{"x_min":21,"x_max":555.203125,"ha":624,"o":"m 416 736 q 386 800 403 768 q 349 863 370 831 l 203 814 l 185 860 l 322 901 q 275 966 301 932 q 212 1042 248 1000 l 305 1042 q 348 990 324 1021 q 398 922 373 959 l 532 965 l 555 925 l 426 882 q 512 707 482 800 q 543 523 543 614 q 509 285 543 410 q 427 87 475 160 q 342 7 392 34 q 231 -20 292 -20 q 75 40 129 -20 q 21 214 21 100 q 48 429 21 311 q 115 618 76 547 q 206 723 153 687 q 320 760 259 760 q 365 754 343 760 q 416 736 388 749 m 460 529 q 426 649 460 608 q 327 691 392 691 q 247 664 282 691 q 185 585 212 638 q 127 406 151 517 q 104 206 104 296 q 137 88 104 129 q 234 47 171 47 q 314 73 279 47 q 376 152 350 99 q 435 332 410 221 q 460 529 460 443 "},"ş":{"x_min":-8,"x_max":475,"ha":539,"o":"m -8 204 l 71 204 l 71 189 q 103 85 71 121 q 197 50 136 50 q 301 94 260 50 q 342 206 342 138 q 317 286 342 255 q 221 355 292 318 q 95 450 124 405 q 67 562 67 494 q 128 719 67 657 q 283 781 189 781 q 423 726 371 781 q 475 579 475 671 l 475 577 l 398 577 q 362 675 394 638 q 278 712 329 712 q 182 670 218 712 q 146 561 146 628 q 170 487 146 518 q 266 421 195 457 q 391 329 358 374 q 424 214 424 284 q 359 46 424 113 q 198 -20 295 -20 q 48 36 104 -20 q -8 185 -8 92 l -8 204 m 45 -239 q 57 -241 49 -239 q 144 -254 121 -254 q 208 -235 186 -254 q 231 -182 231 -217 q 205 -139 231 -152 q 118 -126 180 -126 l 94 -126 l 135 0 l 186 0 l 161 -72 l 172 -72 q 285 -100 249 -72 q 321 -187 321 -128 q 276 -282 321 -246 q 158 -318 232 -318 q 97 -313 130 -318 q 24 -298 64 -308 l 45 -239 "},"ı":{"x_min":-21,"x_max":222,"ha":261,"o":"m -21 0 l 140 762 l 222 762 l 60 0 l -21 0 "},"Ć":{"x_min":49,"x_max":722,"ha":747,"o":"m 639 329 q 516 67 601 156 q 302 -21 431 -21 q 114 54 179 -21 q 49 273 49 130 q 58 402 49 328 q 87 563 68 476 q 131 725 107 652 q 180 850 154 799 q 302 1007 232 957 q 469 1057 372 1057 q 657 982 593 1057 q 722 767 722 908 q 721 741 722 750 q 720 725 721 732 l 633 725 q 634 739 634 731 q 635 763 635 748 q 590 924 635 870 q 460 978 546 978 q 342 937 390 978 q 254 805 294 897 q 214 693 234 758 q 176 548 194 627 q 147 390 156 460 q 138 270 138 321 q 180 113 138 165 q 307 61 222 61 q 456 126 396 61 q 553 329 515 191 l 639 329 m 495 1119 l 440 1119 l 566 1303 l 667 1303 l 495 1119 "},"ä":{"x_min":-14,"x_max":519,"ha":567,"o":"m 169 576 l 87 576 q 167 727 108 675 q 320 779 226 779 q 444 739 394 779 q 494 641 494 699 q 489 588 494 618 q 475 512 485 557 l 398 143 q 395 126 396 135 q 394 106 394 118 q 408 69 394 83 q 445 56 421 56 q 456 56 452 56 q 463 57 460 56 l 450 -5 q 422 -9 435 -8 q 398 -10 409 -10 q 341 5 362 -10 q 314 56 321 22 q 238 0 276 18 q 155 -17 199 -17 q 32 32 79 -17 q -14 162 -14 82 q 36 318 -14 260 q 247 429 87 376 q 382 502 353 464 q 411 608 411 539 q 384 683 411 657 q 307 710 357 710 q 220 679 252 710 q 169 576 188 648 m 370 393 l 364 392 q 67 171 67 301 q 95 87 67 118 q 173 56 124 56 q 295 134 249 56 q 370 393 342 213 m 408 873 l 429 976 l 519 976 l 497 873 l 408 873 m 203 873 l 225 976 l 314 976 l 292 873 l 203 873 "},"¹":{"x_min":103,"x_max":338,"ha":428,"o":"m 134 404 l 250 898 q 199 892 225 894 q 148 890 174 890 l 103 890 l 109 922 q 226 949 182 924 q 293 1028 270 975 l 338 1028 l 191 404 l 134 404 "},"£":{"x_min":-31,"x_max":637,"ha":648,"o":"m 173 468 l 37 468 l 48 524 l 172 524 q 161 647 164 609 q 158 705 158 685 q 228 944 158 857 q 422 1032 298 1032 q 578 963 520 1032 q 637 777 637 894 q 636 751 637 760 q 634 734 636 742 l 554 734 q 555 749 555 741 q 556 774 556 758 q 518 911 556 864 q 410 959 480 959 q 287 891 329 959 q 245 691 245 823 q 247 617 245 657 q 256 524 250 576 l 461 524 l 451 468 l 261 468 l 261 453 q 227 247 261 334 q 121 91 194 160 q 164 95 145 94 q 198 97 183 97 q 300 81 235 97 q 394 65 365 65 q 448 73 421 65 q 503 98 474 81 l 533 34 q 450 -3 488 9 q 381 -16 413 -16 q 269 8 347 -16 q 149 33 191 33 q 79 20 112 33 q 10 -21 47 7 l -31 39 q 130 199 85 118 q 175 413 175 281 q 175 421 175 415 q 173 468 173 445 "},"W":{"x_min":115,"x_max":1052,"ha":987,"o":"m 140 0 l 115 1035 l 203 1035 l 219 151 l 536 1035 l 637 1035 l 639 151 l 961 1035 l 1052 1035 l 663 0 l 560 0 l 553 855 l 243 0 l 140 0 "},"Ğ":{"x_min":47,"x_max":723,"ha":768,"o":"m 567 0 l 492 0 l 501 86 q 410 4 462 31 q 292 -22 359 -22 q 111 55 175 -22 q 47 273 47 132 q 56 399 47 327 q 87 563 66 472 q 129 724 105 651 q 179 850 153 797 q 301 1007 232 957 q 467 1057 371 1057 q 655 986 588 1057 q 723 789 723 916 q 722 771 723 781 q 720 741 721 760 l 632 741 q 633 756 633 748 q 634 779 634 764 q 588 926 634 874 q 459 978 543 978 q 345 940 392 978 q 257 816 297 902 q 214 699 235 766 q 175 548 193 631 q 146 391 156 463 q 137 269 137 320 q 178 112 137 165 q 301 60 220 60 q 471 154 404 60 q 570 438 539 249 l 346 438 l 363 519 l 676 519 l 567 0 m 377 1294 l 424 1294 q 447 1224 424 1247 q 516 1202 470 1202 q 597 1225 563 1202 q 650 1294 631 1249 l 700 1294 q 630 1169 678 1211 q 510 1127 582 1127 q 411 1166 445 1127 q 377 1280 377 1205 l 377 1294 "},"v":{"x_min":57,"x_max":536,"ha":528,"o":"m 92 0 l 57 762 l 137 762 l 165 153 l 446 762 l 536 762 l 177 0 l 92 0 "},">":{"x_min":179,"x_max":978,"ha":1157,"o":"m 978 434 l 978 392 l 179 66 l 179 125 l 887 413 l 179 700 l 179 762 l 978 434 "},"û":{"x_min":1,"x_max":562,"ha":612,"o":"m 562 762 l 399 0 l 324 0 l 339 74 q 255 2 302 26 q 150 -21 207 -21 q 41 16 82 -21 q 1 116 1 53 q 3 153 1 133 q 11 199 6 173 l 131 762 l 211 762 l 90 194 q 85 163 87 179 q 84 134 84 147 q 107 69 84 92 q 172 47 130 47 q 302 106 246 47 q 381 268 359 166 l 485 762 l 562 762 m 526 844 l 474 844 l 385 958 l 249 844 l 191 844 l 345 1028 l 437 1028 l 526 844 "},"Ð":{"x_min":-7,"x_max":713,"ha":770,"o":"m 99 81 l 173 81 q 370 100 312 81 q 472 168 427 120 q 530 254 504 203 q 572 373 555 306 q 610 554 596 469 q 624 698 624 638 q 564 894 624 834 q 366 954 504 954 l 284 954 l 206 587 l 406 587 l 392 516 l 191 516 l 99 81 m -7 0 l 101 516 l 4 516 l 19 587 l 116 587 l 212 1035 l 358 1035 q 524 1017 470 1035 q 622 957 578 999 q 689 848 666 913 q 713 702 713 784 q 701 564 713 643 q 668 393 689 484 q 616 235 647 303 q 547 123 586 167 q 411 28 488 56 q 159 0 335 0 l -7 0 "},"r":{"x_min":-22,"x_max":405,"ha":392,"o":"m -22 0 l 140 762 l 218 762 l 200 681 q 287 758 241 734 q 389 783 332 783 l 405 783 l 383 690 q 236 643 284 690 q 158 459 188 597 l 61 0 l -22 0 "},"Č":{"x_min":49,"x_max":722,"ha":747,"o":"m 639 329 q 516 67 601 156 q 302 -21 431 -21 q 114 54 179 -21 q 49 273 49 130 q 58 402 49 328 q 87 563 68 476 q 131 725 107 652 q 180 850 154 799 q 302 1007 232 957 q 469 1057 372 1057 q 657 982 593 1057 q 722 767 722 908 q 721 741 722 750 q 720 725 721 732 l 633 725 q 634 739 634 731 q 635 763 635 748 q 590 924 635 870 q 460 978 546 978 q 342 937 390 978 q 254 805 294 897 q 214 693 234 758 q 176 548 194 627 q 147 390 156 460 q 138 270 138 321 q 180 113 138 165 q 307 61 222 61 q 456 126 396 61 q 553 329 515 191 l 639 329 m 375 1303 l 426 1303 l 515 1188 l 650 1303 l 709 1303 l 555 1119 l 465 1119 l 375 1303 "},"x":{"x_min":-87,"x_max":532,"ha":534,"o":"m -87 0 l 190 399 l 71 762 l 151 762 l 244 477 l 440 762 l 532 762 l 273 387 l 403 0 l 320 0 l 219 311 l 5 0 l -87 0 "},"è":{"x_min":24,"x_max":509,"ha":591,"o":"m 135 458 l 425 458 q 430 517 428 494 q 432 555 432 539 q 399 671 432 630 q 310 713 367 713 q 206 652 247 713 q 135 458 164 591 m 494 389 l 120 388 q 105 274 108 309 q 102 214 102 239 q 133 92 102 135 q 223 49 165 49 q 317 96 278 49 q 381 243 356 143 l 459 243 q 368 46 430 114 q 218 -21 306 -21 q 74 42 124 -21 q 24 222 24 105 q 50 443 24 322 q 112 638 76 564 q 197 745 146 709 q 314 782 248 782 q 458 721 407 782 q 509 548 509 660 q 505 486 509 523 q 494 389 502 449 m 429 844 l 372 844 l 193 1028 l 298 1028 l 429 844 "},"Ø":{"x_min":-12.203125,"x_max":776.25,"ha":774,"o":"m 716 1101 l 776 1066 l 690 931 q 714 853 706 895 q 722 756 722 811 q 690 491 722 641 q 608 221 658 341 q 480 35 553 92 q 298 -22 407 -22 q 198 -6 239 -22 q 123 43 158 8 l 47 -77 l -12 -42 l 80 104 q 54 181 62 142 q 47 266 47 220 q 79 536 47 381 q 163 813 112 692 q 290 999 216 941 q 471 1057 363 1057 q 571 1041 529 1057 q 646 991 612 1025 l 716 1101 m 628 835 l 172 119 q 232 74 199 88 q 312 60 266 60 q 436 106 384 60 q 528 255 488 153 q 568 378 548 304 q 606 543 588 452 q 626 661 620 609 q 633 755 633 713 q 631 788 633 768 q 628 835 630 809 m 143 201 l 598 915 q 544 962 576 946 q 470 978 513 978 q 347 940 397 978 q 258 819 296 903 q 219 714 239 778 q 176 548 200 651 q 148 405 157 466 q 139 295 139 344 q 140 260 139 284 q 143 201 141 236 "},"÷":{"x_min":173,"x_max":987,"ha":1157,"o":"m 580 247 q 627 226 608 247 q 647 178 647 206 q 627 131 647 151 q 580 112 608 112 q 532 131 551 112 q 513 178 513 150 q 532 226 513 206 q 580 247 552 247 m 987 442 l 987 386 l 173 386 l 173 442 l 987 442 m 580 716 q 627 696 608 716 q 647 648 647 677 q 627 601 647 621 q 580 581 608 581 q 532 601 551 581 q 513 648 513 621 q 532 696 513 676 q 580 716 551 716 "},"h":{"x_min":-21,"x_max":543,"ha":612,"o":"m -21 0 l 198 1035 l 280 1035 l 206 688 q 293 755 247 733 q 393 777 339 777 q 502 739 461 777 q 543 639 543 702 q 540 597 543 618 q 534 556 538 577 l 416 0 l 335 0 l 453 560 q 458 591 456 575 q 460 618 460 606 q 436 685 460 662 q 371 709 413 709 q 242 650 296 709 q 165 486 187 592 l 61 0 l -21 0 "},".":{"x_min":14,"x_max":142,"ha":325,"o":"m 14 0 l 40 125 l 142 125 l 114 0 l 14 0 "},"f":{"x_min":-4,"x_max":390,"ha":306,"o":"m -4 0 l 143 697 l 69 697 l 83 762 l 156 762 l 181 880 q 237 1003 200 968 q 345 1038 273 1038 q 383 1035 357 1038 q 390 1035 387 1035 l 376 967 q 362 968 369 968 q 348 970 355 969 q 294 950 310 970 q 265 873 277 931 l 241 762 l 332 762 l 318 697 l 226 697 l 79 0 l -4 0 "},"“":{"x_min":157,"x_max":563,"ha":543,"o":"m 380 739 l 407 869 q 462 1000 427 959 q 563 1055 497 1041 l 550 1000 q 504 962 521 989 q 471 869 486 934 l 514 869 l 486 739 l 380 739 m 157 739 l 184 869 q 239 1001 205 960 q 339 1055 273 1041 l 327 1000 q 281 962 298 989 q 249 869 264 934 l 291 869 l 263 739 l 157 739 "},"A":{"x_min":-115,"x_max":528,"ha":632,"o":"m 162 392 l 419 392 l 396 898 l 162 392 m 472 1035 l 528 0 l 439 0 l 422 313 l 126 313 l -20 0 l -115 0 l 375 1035 l 472 1035 "},"O":{"x_min":47,"x_max":722,"ha":774,"o":"m 462 978 q 346 939 395 978 q 259 819 297 901 q 215 702 236 770 q 175 548 194 634 q 146 391 156 461 q 137 271 137 321 q 179 110 137 164 q 306 57 221 57 q 424 95 374 57 q 512 216 474 134 q 557 336 535 265 q 597 493 579 406 q 625 649 615 579 q 635 769 635 720 q 590 924 635 871 q 462 978 546 978 m 47 272 q 57 401 47 326 q 87 565 67 476 q 129 724 105 649 q 179 850 154 798 q 301 1007 232 957 q 467 1057 371 1057 q 657 981 593 1057 q 722 758 722 905 q 712 631 722 701 q 686 478 703 560 q 640 309 665 384 q 591 183 616 234 q 469 27 539 77 q 302 -22 399 -22 q 112 53 177 -22 q 47 272 47 128 "},"π":{"x_min":4,"x_max":764,"ha":783,"o":"m 747 650 l 624 650 l 543 266 q 528 190 533 224 q 523 138 523 157 q 540 82 523 98 q 597 66 557 66 q 631 67 616 66 q 660 72 646 69 l 643 0 q 607 -8 623 -6 q 578 -11 592 -11 q 479 25 515 -11 q 443 126 443 62 q 450 209 443 157 q 481 364 458 260 l 540 650 l 282 650 l 144 0 l 62 0 l 198 650 l 172 650 q 114 628 134 650 q 86 559 93 606 l 4 559 q 61 686 20 651 q 201 721 102 721 l 764 721 l 747 650 "},"‘":{"x_min":157,"x_max":339,"ha":319,"o":"m 157 739 l 184 869 q 239 1001 205 960 q 339 1055 273 1041 l 327 1000 q 281 962 298 989 q 249 869 264 934 l 291 869 l 263 739 l 157 739 "},"3":{"x_min":21,"x_max":610,"ha":648,"o":"m 25 299 l 110 299 q 108 267 109 282 q 108 232 108 252 q 147 101 108 149 q 254 53 187 53 q 388 129 334 53 q 443 317 443 205 q 386 454 443 409 q 211 502 330 499 l 224 571 l 252 571 q 457 627 387 571 q 527 793 527 684 q 489 913 527 868 q 390 959 451 959 q 295 916 334 959 q 234 791 255 874 l 151 791 q 237 967 170 903 q 400 1032 304 1032 q 551 967 493 1032 q 610 799 610 903 q 558 618 610 687 q 404 525 506 548 q 501 439 470 489 q 532 312 532 388 q 452 72 532 165 q 251 -20 373 -20 q 84 46 147 -20 q 21 223 21 112 q 22 252 21 233 q 25 299 23 272 "},"9":{"x_min":16,"x_max":602,"ha":648,"o":"m 513 778 q 476 910 513 862 q 375 959 439 959 q 232 859 291 959 q 173 623 173 760 q 209 491 173 539 q 309 443 246 443 q 453 542 393 443 q 513 778 513 641 m 16 213 l 96 210 q 128 92 98 132 q 213 52 158 52 q 373 156 306 52 q 476 466 439 261 q 389 392 434 416 q 291 368 344 368 q 136 433 193 368 q 80 614 80 499 q 162 915 80 798 q 375 1032 244 1032 q 541 954 480 1032 q 602 741 602 876 q 572 482 602 629 q 498 226 543 335 q 377 44 451 107 q 211 -18 303 -18 q 71 43 124 -18 q 16 213 19 104 "},"l":{"x_min":-21,"x_max":281,"ha":261,"o":"m -21 0 l 198 1035 l 281 1035 l 61 0 l -21 0 "},"":{"x_min":-4,"x_max":615,"ha":596,"o":"m -4 0 l 143 697 l 69 697 l 83 762 l 157 762 l 183 880 q 238 1003 202 969 q 345 1038 273 1038 q 383 1035 357 1038 q 389 1035 387 1035 l 376 967 q 362 968 368 968 q 348 970 355 969 q 293 950 310 970 q 265 873 277 931 l 241 762 l 333 762 l 318 697 l 227 697 l 79 0 l -4 0 m 313 0 l 474 762 l 556 762 l 395 0 l 313 0 m 488 904 l 516 1035 l 615 1035 l 587 904 l 488 904 "},"4":{"x_min":3,"x_max":603,"ha":648,"o":"m 375 352 l 497 901 l 104 352 l 375 352 m 299 0 l 359 283 l 3 283 l 19 362 l 520 1039 l 603 1039 l 457 352 l 555 352 l 541 283 l 443 283 l 381 0 l 299 0 "},"Ü":{"x_min":40,"x_max":785,"ha":768,"o":"m 202 1035 l 291 1035 l 143 340 q 132 280 136 309 q 129 228 129 252 q 175 102 129 145 q 312 59 221 59 q 462 115 411 59 q 551 351 512 171 l 696 1035 l 785 1035 l 636 332 q 520 49 591 120 q 307 -22 449 -22 q 110 41 181 -22 q 40 218 40 104 q 64 387 40 268 l 66 397 l 202 1035 m 568 1148 l 589 1251 l 679 1251 l 657 1148 l 568 1148 m 363 1148 l 385 1251 l 474 1251 l 452 1148 l 363 1148 "},"à":{"x_min":-14,"x_max":494,"ha":567,"o":"m 169 576 l 87 576 q 167 727 108 675 q 320 779 226 779 q 444 739 394 779 q 494 641 494 699 q 489 588 494 618 q 475 512 485 557 l 398 143 q 395 126 396 135 q 394 106 394 118 q 408 69 394 83 q 445 56 421 56 q 456 56 452 56 q 463 57 460 56 l 450 -5 q 422 -9 435 -8 q 398 -10 409 -10 q 341 5 362 -10 q 314 56 321 22 q 238 0 276 18 q 155 -17 199 -17 q 32 32 79 -17 q -14 162 -14 82 q 36 318 -14 260 q 247 429 87 376 q 382 502 353 464 q 411 608 411 539 q 384 683 411 657 q 307 710 357 710 q 220 679 252 710 q 169 576 188 648 m 370 393 l 364 392 q 67 171 67 301 q 95 87 67 118 q 173 56 124 56 q 295 134 249 56 q 370 393 342 213 m 432 844 l 375 844 l 196 1028 l 301 1028 l 432 844 "},"ó":{"x_min":21,"x_max":543,"ha":624,"o":"m 21 223 q 49 444 21 324 q 116 638 77 565 q 208 746 155 710 q 331 782 262 782 q 488 719 433 782 q 543 539 543 656 q 515 317 543 436 q 446 123 487 199 q 354 15 408 51 q 230 -20 300 -20 q 74 42 127 -20 q 21 223 21 104 m 327 713 q 247 685 282 713 q 185 603 212 658 q 128 420 152 533 q 104 214 104 307 q 137 92 104 134 q 234 50 171 50 q 315 77 279 50 q 377 157 351 104 q 435 344 411 230 q 460 547 460 459 q 426 670 460 628 q 327 713 392 713 m 348 844 l 293 844 l 419 1028 l 520 1028 l 348 844 "}}}
